G04 EAGLE Gerber RS-274X export*
G75*
%MOMM*%
%FSLAX34Y34*%
%LPD*%
%INSolder Mask top*%
%IPPOS*%
%AMOC8*
5,1,8,0,0,1.08239X$1,22.5*%
G01*
%ADD10C,0.000000*%
%ADD11C,3.403200*%
%ADD12C,0.001000*%
%ADD13C,2.403200*%
%ADD14C,2.203200*%
%ADD15C,0.697853*%
%ADD16C,0.456691*%
%ADD17C,2.703200*%
%ADD18C,1.211759*%
%ADD19C,2.203200*%
%ADD20C,0.959600*%
%ADD21C,0.254000*%

G36*
X42030Y70752D02*
X42030Y70752D01*
X42030Y70753D01*
X42031Y70752D01*
X46713Y72203D01*
X46714Y72203D01*
X50952Y74498D01*
X54647Y77538D01*
X57699Y81222D01*
X57699Y81223D01*
X60008Y85452D01*
X60008Y85453D01*
X60009Y85453D01*
X61475Y90127D01*
X61475Y90128D01*
X61476Y90128D01*
X62000Y95348D01*
X62001Y95349D01*
X62000Y95349D01*
X62001Y95350D01*
X61476Y100371D01*
X61476Y100372D01*
X60010Y105047D01*
X60009Y105047D01*
X60009Y105048D01*
X57701Y109277D01*
X57700Y109278D01*
X54649Y112962D01*
X54648Y112962D01*
X54648Y112963D01*
X50953Y116002D01*
X50953Y116003D01*
X46714Y118297D01*
X42031Y119747D01*
X37004Y120253D01*
X37003Y120252D01*
X37003Y120253D01*
X31976Y119747D01*
X27293Y118297D01*
X27292Y118297D01*
X23053Y116003D01*
X23053Y116002D01*
X19357Y112963D01*
X19357Y112962D01*
X16305Y109278D01*
X16305Y109277D01*
X16304Y109277D01*
X13995Y105048D01*
X13995Y105047D01*
X12528Y100372D01*
X12528Y100371D01*
X12003Y95350D01*
X12004Y95349D01*
X12003Y95349D01*
X12528Y90128D01*
X12529Y90128D01*
X12529Y90127D01*
X13996Y85453D01*
X13996Y85452D01*
X16305Y81223D01*
X16306Y81223D01*
X16306Y81222D01*
X19358Y77538D01*
X19359Y77538D01*
X23054Y74498D01*
X23055Y74498D01*
X27293Y72203D01*
X27294Y72203D01*
X31976Y70752D01*
X31977Y70753D01*
X31977Y70752D01*
X37003Y70246D01*
X37004Y70246D01*
X42030Y70752D01*
G37*
%LPC*%
G36*
X34765Y73485D02*
X34765Y73485D01*
X32593Y73816D01*
X30496Y74355D01*
X28487Y75090D01*
X26575Y76011D01*
X24772Y77107D01*
X23087Y78366D01*
X21531Y79779D01*
X20126Y81326D01*
X18873Y83000D01*
X17782Y84792D01*
X16864Y86691D01*
X16129Y88686D01*
X15588Y90768D01*
X15251Y92926D01*
X15130Y95349D01*
X15129Y95350D01*
X15251Y97572D01*
X15587Y99730D01*
X16128Y101812D01*
X16863Y103808D01*
X17781Y105707D01*
X18873Y107499D01*
X20126Y109174D01*
X21531Y110720D01*
X23087Y112131D01*
X24772Y113390D01*
X26575Y114486D01*
X28487Y115407D01*
X30496Y116143D01*
X32593Y116682D01*
X34765Y117013D01*
X37004Y117126D01*
X39241Y117013D01*
X41413Y116682D01*
X43509Y116143D01*
X45518Y115407D01*
X47429Y114486D01*
X49232Y113390D01*
X50915Y112131D01*
X52469Y110720D01*
X53874Y109174D01*
X55128Y107499D01*
X56219Y105707D01*
X57138Y103808D01*
X57873Y101812D01*
X58415Y99730D01*
X58752Y97572D01*
X58874Y95350D01*
X58874Y95349D01*
X58751Y92926D01*
X58414Y90768D01*
X57872Y88686D01*
X57137Y86691D01*
X56218Y84792D01*
X55127Y83000D01*
X53874Y81326D01*
X52469Y79779D01*
X50915Y78366D01*
X49232Y77107D01*
X47429Y76011D01*
X45518Y75090D01*
X43509Y74355D01*
X41413Y73816D01*
X39241Y73485D01*
X37004Y73372D01*
X34765Y73485D01*
G37*
%LPD*%
G36*
X45858Y83558D02*
X45858Y83558D01*
X45904Y83560D01*
X45949Y83567D01*
X45992Y83577D01*
X45992Y83578D01*
X46033Y83593D01*
X46034Y83593D01*
X46073Y83612D01*
X46074Y83612D01*
X46111Y83635D01*
X46111Y83636D01*
X46147Y83662D01*
X46147Y83663D01*
X46147Y83662D01*
X46181Y83693D01*
X46210Y83726D01*
X46211Y83726D01*
X46237Y83762D01*
X46259Y83800D01*
X46278Y83840D01*
X46293Y83882D01*
X46304Y83925D01*
X46311Y83969D01*
X46310Y83969D01*
X46311Y83969D01*
X46313Y84013D01*
X46313Y86728D01*
X46311Y86774D01*
X46310Y86774D01*
X46311Y86774D01*
X46304Y86819D01*
X46293Y86862D01*
X46278Y86903D01*
X46278Y86904D01*
X46259Y86943D01*
X46237Y86980D01*
X46211Y87015D01*
X46210Y87015D01*
X46181Y87048D01*
X46147Y87081D01*
X46112Y87110D01*
X46111Y87110D01*
X46074Y87134D01*
X46073Y87134D01*
X46034Y87154D01*
X46033Y87154D01*
X45992Y87170D01*
X45949Y87181D01*
X45904Y87188D01*
X45858Y87191D01*
X45858Y87190D01*
X45857Y87191D01*
X33000Y87191D01*
X34307Y88143D01*
X43531Y94869D01*
X43575Y94902D01*
X43575Y94903D01*
X43576Y94903D01*
X43614Y94941D01*
X43614Y94942D01*
X43615Y94942D01*
X43648Y94984D01*
X43675Y95030D01*
X43675Y95031D01*
X43697Y95079D01*
X43713Y95130D01*
X43722Y95181D01*
X43722Y95182D01*
X43726Y95234D01*
X43722Y95289D01*
X43713Y95343D01*
X43713Y95344D01*
X43698Y95395D01*
X43697Y95395D01*
X43697Y95396D01*
X43676Y95445D01*
X43650Y95492D01*
X43649Y95492D01*
X43617Y95535D01*
X43580Y95574D01*
X43538Y95609D01*
X39604Y98502D01*
X38293Y99466D01*
X33058Y103315D01*
X45857Y103315D01*
X45858Y103315D01*
X45904Y103317D01*
X45904Y103318D01*
X45904Y103317D01*
X45949Y103324D01*
X45992Y103334D01*
X45992Y103335D01*
X45992Y103334D01*
X46033Y103350D01*
X46034Y103350D01*
X46073Y103369D01*
X46074Y103369D01*
X46111Y103393D01*
X46112Y103393D01*
X46147Y103421D01*
X46147Y103422D01*
X46181Y103454D01*
X46210Y103487D01*
X46211Y103487D01*
X46237Y103523D01*
X46259Y103561D01*
X46278Y103601D01*
X46293Y103643D01*
X46304Y103686D01*
X46311Y103730D01*
X46310Y103730D01*
X46311Y103730D01*
X46313Y103774D01*
X46313Y106482D01*
X46311Y106529D01*
X46310Y106529D01*
X46311Y106529D01*
X46304Y106574D01*
X46304Y106575D01*
X46293Y106618D01*
X46293Y106619D01*
X46278Y106661D01*
X46278Y106662D01*
X46259Y106702D01*
X46237Y106740D01*
X46237Y106741D01*
X46211Y106776D01*
X46210Y106776D01*
X46181Y106809D01*
X46147Y106838D01*
X46147Y106839D01*
X46111Y106865D01*
X46074Y106887D01*
X46073Y106887D01*
X46034Y106906D01*
X46033Y106906D01*
X45992Y106921D01*
X45949Y106932D01*
X45904Y106939D01*
X45858Y106941D01*
X45857Y106941D01*
X28494Y106941D01*
X28337Y106926D01*
X28336Y106926D01*
X28188Y106882D01*
X28187Y106882D01*
X28052Y106812D01*
X28051Y106812D01*
X27932Y106718D01*
X27932Y106717D01*
X27931Y106717D01*
X27832Y106603D01*
X27832Y106602D01*
X27756Y106468D01*
X27756Y106467D01*
X27708Y106317D01*
X27708Y106316D01*
X27691Y106152D01*
X27691Y106151D01*
X27691Y103106D01*
X27694Y103052D01*
X27694Y103051D01*
X27703Y103000D01*
X27704Y102999D01*
X27719Y102949D01*
X27739Y102901D01*
X27740Y102900D01*
X27766Y102854D01*
X27796Y102811D01*
X27797Y102811D01*
X27832Y102771D01*
X27871Y102734D01*
X27872Y102734D01*
X38065Y95234D01*
X27872Y87772D01*
X27872Y87771D01*
X27871Y87771D01*
X27832Y87736D01*
X27832Y87735D01*
X27797Y87696D01*
X27796Y87696D01*
X27766Y87653D01*
X27740Y87607D01*
X27739Y87607D01*
X27719Y87559D01*
X27719Y87558D01*
X27704Y87508D01*
X27703Y87508D01*
X27694Y87456D01*
X27691Y87403D01*
X27691Y84351D01*
X27708Y84186D01*
X27708Y84185D01*
X27756Y84034D01*
X27832Y83899D01*
X27931Y83783D01*
X27932Y83783D01*
X27932Y83782D01*
X28051Y83688D01*
X28052Y83688D01*
X28187Y83617D01*
X28188Y83617D01*
X28336Y83573D01*
X28337Y83573D01*
X28494Y83558D01*
X45857Y83558D01*
X45858Y83558D01*
G37*
D10*
X283050Y370160D02*
X283055Y370553D01*
X283069Y370945D01*
X283093Y371337D01*
X283127Y371728D01*
X283170Y372119D01*
X283223Y372508D01*
X283286Y372895D01*
X283357Y373281D01*
X283439Y373666D01*
X283529Y374048D01*
X283630Y374427D01*
X283739Y374805D01*
X283858Y375179D01*
X283985Y375550D01*
X284122Y375918D01*
X284268Y376283D01*
X284423Y376644D01*
X284586Y377001D01*
X284758Y377354D01*
X284939Y377702D01*
X285129Y378046D01*
X285326Y378386D01*
X285532Y378720D01*
X285746Y379049D01*
X285969Y379373D01*
X286199Y379691D01*
X286436Y380004D01*
X286682Y380310D01*
X286935Y380611D01*
X287195Y380905D01*
X287462Y381193D01*
X287736Y381474D01*
X288017Y381748D01*
X288305Y382015D01*
X288599Y382275D01*
X288900Y382528D01*
X289206Y382774D01*
X289519Y383011D01*
X289837Y383241D01*
X290161Y383464D01*
X290490Y383678D01*
X290824Y383884D01*
X291164Y384081D01*
X291508Y384271D01*
X291856Y384452D01*
X292209Y384624D01*
X292566Y384787D01*
X292927Y384942D01*
X293292Y385088D01*
X293660Y385225D01*
X294031Y385352D01*
X294405Y385471D01*
X294783Y385580D01*
X295162Y385681D01*
X295544Y385771D01*
X295929Y385853D01*
X296315Y385924D01*
X296702Y385987D01*
X297091Y386040D01*
X297482Y386083D01*
X297873Y386117D01*
X298265Y386141D01*
X298657Y386155D01*
X299050Y386160D01*
X299443Y386155D01*
X299835Y386141D01*
X300227Y386117D01*
X300618Y386083D01*
X301009Y386040D01*
X301398Y385987D01*
X301785Y385924D01*
X302171Y385853D01*
X302556Y385771D01*
X302938Y385681D01*
X303317Y385580D01*
X303695Y385471D01*
X304069Y385352D01*
X304440Y385225D01*
X304808Y385088D01*
X305173Y384942D01*
X305534Y384787D01*
X305891Y384624D01*
X306244Y384452D01*
X306592Y384271D01*
X306936Y384081D01*
X307276Y383884D01*
X307610Y383678D01*
X307939Y383464D01*
X308263Y383241D01*
X308581Y383011D01*
X308894Y382774D01*
X309200Y382528D01*
X309501Y382275D01*
X309795Y382015D01*
X310083Y381748D01*
X310364Y381474D01*
X310638Y381193D01*
X310905Y380905D01*
X311165Y380611D01*
X311418Y380310D01*
X311664Y380004D01*
X311901Y379691D01*
X312131Y379373D01*
X312354Y379049D01*
X312568Y378720D01*
X312774Y378386D01*
X312971Y378046D01*
X313161Y377702D01*
X313342Y377354D01*
X313514Y377001D01*
X313677Y376644D01*
X313832Y376283D01*
X313978Y375918D01*
X314115Y375550D01*
X314242Y375179D01*
X314361Y374805D01*
X314470Y374427D01*
X314571Y374048D01*
X314661Y373666D01*
X314743Y373281D01*
X314814Y372895D01*
X314877Y372508D01*
X314930Y372119D01*
X314973Y371728D01*
X315007Y371337D01*
X315031Y370945D01*
X315045Y370553D01*
X315050Y370160D01*
X315045Y369767D01*
X315031Y369375D01*
X315007Y368983D01*
X314973Y368592D01*
X314930Y368201D01*
X314877Y367812D01*
X314814Y367425D01*
X314743Y367039D01*
X314661Y366654D01*
X314571Y366272D01*
X314470Y365893D01*
X314361Y365515D01*
X314242Y365141D01*
X314115Y364770D01*
X313978Y364402D01*
X313832Y364037D01*
X313677Y363676D01*
X313514Y363319D01*
X313342Y362966D01*
X313161Y362618D01*
X312971Y362274D01*
X312774Y361934D01*
X312568Y361600D01*
X312354Y361271D01*
X312131Y360947D01*
X311901Y360629D01*
X311664Y360316D01*
X311418Y360010D01*
X311165Y359709D01*
X310905Y359415D01*
X310638Y359127D01*
X310364Y358846D01*
X310083Y358572D01*
X309795Y358305D01*
X309501Y358045D01*
X309200Y357792D01*
X308894Y357546D01*
X308581Y357309D01*
X308263Y357079D01*
X307939Y356856D01*
X307610Y356642D01*
X307276Y356436D01*
X306936Y356239D01*
X306592Y356049D01*
X306244Y355868D01*
X305891Y355696D01*
X305534Y355533D01*
X305173Y355378D01*
X304808Y355232D01*
X304440Y355095D01*
X304069Y354968D01*
X303695Y354849D01*
X303317Y354740D01*
X302938Y354639D01*
X302556Y354549D01*
X302171Y354467D01*
X301785Y354396D01*
X301398Y354333D01*
X301009Y354280D01*
X300618Y354237D01*
X300227Y354203D01*
X299835Y354179D01*
X299443Y354165D01*
X299050Y354160D01*
X298657Y354165D01*
X298265Y354179D01*
X297873Y354203D01*
X297482Y354237D01*
X297091Y354280D01*
X296702Y354333D01*
X296315Y354396D01*
X295929Y354467D01*
X295544Y354549D01*
X295162Y354639D01*
X294783Y354740D01*
X294405Y354849D01*
X294031Y354968D01*
X293660Y355095D01*
X293292Y355232D01*
X292927Y355378D01*
X292566Y355533D01*
X292209Y355696D01*
X291856Y355868D01*
X291508Y356049D01*
X291164Y356239D01*
X290824Y356436D01*
X290490Y356642D01*
X290161Y356856D01*
X289837Y357079D01*
X289519Y357309D01*
X289206Y357546D01*
X288900Y357792D01*
X288599Y358045D01*
X288305Y358305D01*
X288017Y358572D01*
X287736Y358846D01*
X287462Y359127D01*
X287195Y359415D01*
X286935Y359709D01*
X286682Y360010D01*
X286436Y360316D01*
X286199Y360629D01*
X285969Y360947D01*
X285746Y361271D01*
X285532Y361600D01*
X285326Y361934D01*
X285129Y362274D01*
X284939Y362618D01*
X284758Y362966D01*
X284586Y363319D01*
X284423Y363676D01*
X284268Y364037D01*
X284122Y364402D01*
X283985Y364770D01*
X283858Y365141D01*
X283739Y365515D01*
X283630Y365893D01*
X283529Y366272D01*
X283439Y366654D01*
X283357Y367039D01*
X283286Y367425D01*
X283223Y367812D01*
X283170Y368201D01*
X283127Y368592D01*
X283093Y368983D01*
X283069Y369375D01*
X283055Y369767D01*
X283050Y370160D01*
D11*
X299050Y370160D03*
D10*
X14480Y30480D02*
X14485Y30873D01*
X14499Y31265D01*
X14523Y31657D01*
X14557Y32048D01*
X14600Y32439D01*
X14653Y32828D01*
X14716Y33215D01*
X14787Y33601D01*
X14869Y33986D01*
X14959Y34368D01*
X15060Y34747D01*
X15169Y35125D01*
X15288Y35499D01*
X15415Y35870D01*
X15552Y36238D01*
X15698Y36603D01*
X15853Y36964D01*
X16016Y37321D01*
X16188Y37674D01*
X16369Y38022D01*
X16559Y38366D01*
X16756Y38706D01*
X16962Y39040D01*
X17176Y39369D01*
X17399Y39693D01*
X17629Y40011D01*
X17866Y40324D01*
X18112Y40630D01*
X18365Y40931D01*
X18625Y41225D01*
X18892Y41513D01*
X19166Y41794D01*
X19447Y42068D01*
X19735Y42335D01*
X20029Y42595D01*
X20330Y42848D01*
X20636Y43094D01*
X20949Y43331D01*
X21267Y43561D01*
X21591Y43784D01*
X21920Y43998D01*
X22254Y44204D01*
X22594Y44401D01*
X22938Y44591D01*
X23286Y44772D01*
X23639Y44944D01*
X23996Y45107D01*
X24357Y45262D01*
X24722Y45408D01*
X25090Y45545D01*
X25461Y45672D01*
X25835Y45791D01*
X26213Y45900D01*
X26592Y46001D01*
X26974Y46091D01*
X27359Y46173D01*
X27745Y46244D01*
X28132Y46307D01*
X28521Y46360D01*
X28912Y46403D01*
X29303Y46437D01*
X29695Y46461D01*
X30087Y46475D01*
X30480Y46480D01*
X30873Y46475D01*
X31265Y46461D01*
X31657Y46437D01*
X32048Y46403D01*
X32439Y46360D01*
X32828Y46307D01*
X33215Y46244D01*
X33601Y46173D01*
X33986Y46091D01*
X34368Y46001D01*
X34747Y45900D01*
X35125Y45791D01*
X35499Y45672D01*
X35870Y45545D01*
X36238Y45408D01*
X36603Y45262D01*
X36964Y45107D01*
X37321Y44944D01*
X37674Y44772D01*
X38022Y44591D01*
X38366Y44401D01*
X38706Y44204D01*
X39040Y43998D01*
X39369Y43784D01*
X39693Y43561D01*
X40011Y43331D01*
X40324Y43094D01*
X40630Y42848D01*
X40931Y42595D01*
X41225Y42335D01*
X41513Y42068D01*
X41794Y41794D01*
X42068Y41513D01*
X42335Y41225D01*
X42595Y40931D01*
X42848Y40630D01*
X43094Y40324D01*
X43331Y40011D01*
X43561Y39693D01*
X43784Y39369D01*
X43998Y39040D01*
X44204Y38706D01*
X44401Y38366D01*
X44591Y38022D01*
X44772Y37674D01*
X44944Y37321D01*
X45107Y36964D01*
X45262Y36603D01*
X45408Y36238D01*
X45545Y35870D01*
X45672Y35499D01*
X45791Y35125D01*
X45900Y34747D01*
X46001Y34368D01*
X46091Y33986D01*
X46173Y33601D01*
X46244Y33215D01*
X46307Y32828D01*
X46360Y32439D01*
X46403Y32048D01*
X46437Y31657D01*
X46461Y31265D01*
X46475Y30873D01*
X46480Y30480D01*
X46475Y30087D01*
X46461Y29695D01*
X46437Y29303D01*
X46403Y28912D01*
X46360Y28521D01*
X46307Y28132D01*
X46244Y27745D01*
X46173Y27359D01*
X46091Y26974D01*
X46001Y26592D01*
X45900Y26213D01*
X45791Y25835D01*
X45672Y25461D01*
X45545Y25090D01*
X45408Y24722D01*
X45262Y24357D01*
X45107Y23996D01*
X44944Y23639D01*
X44772Y23286D01*
X44591Y22938D01*
X44401Y22594D01*
X44204Y22254D01*
X43998Y21920D01*
X43784Y21591D01*
X43561Y21267D01*
X43331Y20949D01*
X43094Y20636D01*
X42848Y20330D01*
X42595Y20029D01*
X42335Y19735D01*
X42068Y19447D01*
X41794Y19166D01*
X41513Y18892D01*
X41225Y18625D01*
X40931Y18365D01*
X40630Y18112D01*
X40324Y17866D01*
X40011Y17629D01*
X39693Y17399D01*
X39369Y17176D01*
X39040Y16962D01*
X38706Y16756D01*
X38366Y16559D01*
X38022Y16369D01*
X37674Y16188D01*
X37321Y16016D01*
X36964Y15853D01*
X36603Y15698D01*
X36238Y15552D01*
X35870Y15415D01*
X35499Y15288D01*
X35125Y15169D01*
X34747Y15060D01*
X34368Y14959D01*
X33986Y14869D01*
X33601Y14787D01*
X33215Y14716D01*
X32828Y14653D01*
X32439Y14600D01*
X32048Y14557D01*
X31657Y14523D01*
X31265Y14499D01*
X30873Y14485D01*
X30480Y14480D01*
X30087Y14485D01*
X29695Y14499D01*
X29303Y14523D01*
X28912Y14557D01*
X28521Y14600D01*
X28132Y14653D01*
X27745Y14716D01*
X27359Y14787D01*
X26974Y14869D01*
X26592Y14959D01*
X26213Y15060D01*
X25835Y15169D01*
X25461Y15288D01*
X25090Y15415D01*
X24722Y15552D01*
X24357Y15698D01*
X23996Y15853D01*
X23639Y16016D01*
X23286Y16188D01*
X22938Y16369D01*
X22594Y16559D01*
X22254Y16756D01*
X21920Y16962D01*
X21591Y17176D01*
X21267Y17399D01*
X20949Y17629D01*
X20636Y17866D01*
X20330Y18112D01*
X20029Y18365D01*
X19735Y18625D01*
X19447Y18892D01*
X19166Y19166D01*
X18892Y19447D01*
X18625Y19735D01*
X18365Y20029D01*
X18112Y20330D01*
X17866Y20636D01*
X17629Y20949D01*
X17399Y21267D01*
X17176Y21591D01*
X16962Y21920D01*
X16756Y22254D01*
X16559Y22594D01*
X16369Y22938D01*
X16188Y23286D01*
X16016Y23639D01*
X15853Y23996D01*
X15698Y24357D01*
X15552Y24722D01*
X15415Y25090D01*
X15288Y25461D01*
X15169Y25835D01*
X15060Y26213D01*
X14959Y26592D01*
X14869Y26974D01*
X14787Y27359D01*
X14716Y27745D01*
X14653Y28132D01*
X14600Y28521D01*
X14557Y28912D01*
X14523Y29303D01*
X14499Y29695D01*
X14485Y30087D01*
X14480Y30480D01*
D11*
X30480Y30480D03*
D12*
X30000Y0D02*
X300000Y0D01*
X30000Y0D02*
X23954Y610D01*
X18323Y2358D01*
X13227Y5124D01*
X8787Y8787D01*
X5124Y13227D01*
X2358Y18323D01*
X610Y23954D01*
X0Y30000D01*
X0Y370000D01*
X610Y376046D01*
X2358Y381677D01*
X5124Y386773D01*
X8787Y391213D01*
X13227Y394877D01*
X18323Y397643D01*
X23954Y399391D01*
X30000Y400000D01*
X300000Y400000D01*
X306046Y399391D01*
X311677Y397643D01*
X316773Y394877D01*
X321213Y391213D01*
X324877Y386773D01*
X327643Y381677D01*
X329391Y376046D01*
X330000Y370000D01*
X330000Y30000D01*
X329391Y23954D01*
X327643Y18323D01*
X324877Y13227D01*
X321213Y8787D01*
X316773Y5124D01*
X311677Y2358D01*
X306046Y610D01*
X300000Y0D01*
D13*
X117250Y38100D02*
X95250Y38100D01*
X95250Y63500D02*
X117250Y63500D01*
X254000Y38100D02*
X276000Y38100D01*
X276000Y63500D02*
X254000Y63500D01*
D14*
X213200Y76200D02*
X193200Y76200D01*
X193200Y50800D02*
X213200Y50800D01*
X213200Y25400D02*
X193200Y25400D01*
D15*
X52177Y139713D02*
X42123Y139713D01*
X42123Y144767D01*
X52177Y144767D01*
X52177Y139713D01*
X62123Y139713D02*
X72177Y139713D01*
X62123Y139713D02*
X62123Y144767D01*
X72177Y144767D01*
X72177Y139713D01*
D16*
X151133Y42033D02*
X151133Y24567D01*
X140967Y24567D01*
X140967Y42033D01*
X151133Y42033D01*
X151133Y28906D02*
X140967Y28906D01*
X140967Y33245D02*
X151133Y33245D01*
X151133Y37584D02*
X140967Y37584D01*
X140967Y41923D02*
X151133Y41923D01*
X151133Y59567D02*
X151133Y77033D01*
X151133Y59567D02*
X140967Y59567D01*
X140967Y77033D01*
X151133Y77033D01*
X151133Y63906D02*
X140967Y63906D01*
X140967Y68245D02*
X151133Y68245D01*
X151133Y72584D02*
X140967Y72584D01*
X140967Y76923D02*
X151133Y76923D01*
D17*
X135700Y127000D03*
X186500Y127000D03*
D18*
X204757Y162843D02*
X204757Y192757D01*
X204757Y162843D02*
X194843Y162843D01*
X194843Y192757D01*
X204757Y192757D01*
X204757Y174355D02*
X194843Y174355D01*
X194843Y185867D02*
X204757Y185867D01*
X179357Y192757D02*
X179357Y162843D01*
X169443Y162843D01*
X169443Y192757D01*
X179357Y192757D01*
X179357Y174355D02*
X169443Y174355D01*
X169443Y185867D02*
X179357Y185867D01*
X153957Y192757D02*
X153957Y162843D01*
X144043Y162843D01*
X144043Y192757D01*
X153957Y192757D01*
X153957Y174355D02*
X144043Y174355D01*
X144043Y185867D02*
X153957Y185867D01*
X128557Y192757D02*
X128557Y162843D01*
X118643Y162843D01*
X118643Y192757D01*
X128557Y192757D01*
X128557Y174355D02*
X118643Y174355D01*
X118643Y185867D02*
X128557Y185867D01*
X103157Y192757D02*
X103157Y162843D01*
X93243Y162843D01*
X93243Y192757D01*
X103157Y192757D01*
X103157Y174355D02*
X93243Y174355D01*
X93243Y185867D02*
X103157Y185867D01*
X77757Y192757D02*
X77757Y162843D01*
X67843Y162843D01*
X67843Y192757D01*
X77757Y192757D01*
X77757Y174355D02*
X67843Y174355D01*
X67843Y185867D02*
X77757Y185867D01*
X52357Y192757D02*
X52357Y162843D01*
X42443Y162843D01*
X42443Y192757D01*
X52357Y192757D01*
X52357Y174355D02*
X42443Y174355D01*
X42443Y185867D02*
X52357Y185867D01*
X204757Y342843D02*
X204757Y372757D01*
X204757Y342843D02*
X194843Y342843D01*
X194843Y372757D01*
X204757Y372757D01*
X204757Y354355D02*
X194843Y354355D01*
X194843Y365867D02*
X204757Y365867D01*
X179357Y372757D02*
X179357Y342843D01*
X169443Y342843D01*
X169443Y372757D01*
X179357Y372757D01*
X179357Y354355D02*
X169443Y354355D01*
X169443Y365867D02*
X179357Y365867D01*
X153957Y372757D02*
X153957Y342843D01*
X144043Y342843D01*
X144043Y372757D01*
X153957Y372757D01*
X153957Y354355D02*
X144043Y354355D01*
X144043Y365867D02*
X153957Y365867D01*
X128557Y372757D02*
X128557Y342843D01*
X118643Y342843D01*
X118643Y372757D01*
X128557Y372757D01*
X128557Y354355D02*
X118643Y354355D01*
X118643Y365867D02*
X128557Y365867D01*
X103157Y372757D02*
X103157Y342843D01*
X93243Y342843D01*
X93243Y372757D01*
X103157Y372757D01*
X103157Y354355D02*
X93243Y354355D01*
X93243Y365867D02*
X103157Y365867D01*
X77757Y372757D02*
X77757Y342843D01*
X67843Y342843D01*
X67843Y372757D01*
X77757Y372757D01*
X77757Y354355D02*
X67843Y354355D01*
X67843Y365867D02*
X77757Y365867D01*
X52357Y372757D02*
X52357Y342843D01*
X42443Y342843D01*
X42443Y372757D01*
X52357Y372757D01*
X52357Y354355D02*
X42443Y354355D01*
X42443Y365867D02*
X52357Y365867D01*
D19*
X300400Y288900D03*
X249600Y288900D03*
X300400Y263500D03*
X249600Y263500D03*
X300400Y238100D03*
X249600Y238100D03*
X300400Y212700D03*
X249600Y212700D03*
X300400Y187300D03*
X249600Y187300D03*
X300400Y161900D03*
X249600Y161900D03*
X300400Y136500D03*
X249600Y136500D03*
X300400Y111100D03*
X249600Y111100D03*
D20*
X165000Y105000D03*
X145000Y85000D03*
X60000Y335000D03*
X127154Y329634D03*
X210000Y225000D03*
X100000Y235000D03*
D21*
X0Y30000D02*
X610Y23954D01*
X2358Y18323D01*
X5124Y13227D01*
X8787Y8787D01*
X13227Y5124D01*
X18323Y2358D01*
X23954Y610D01*
X30000Y0D01*
X300000Y0D01*
X306046Y610D01*
X311677Y2358D01*
X316773Y5124D01*
X321213Y8787D01*
X324877Y13227D01*
X327643Y18323D01*
X329391Y23954D01*
X330000Y30000D01*
X330000Y370000D01*
X329391Y376046D01*
X327643Y381677D01*
X324877Y386773D01*
X321213Y391213D01*
X316773Y394877D01*
X311677Y397643D01*
X306046Y399391D01*
X300000Y400000D01*
X30000Y400000D01*
X23954Y399391D01*
X18323Y397643D01*
X13227Y394877D01*
X8787Y391213D01*
X5124Y386773D01*
X2358Y381677D01*
X610Y376046D01*
X0Y370000D01*
X0Y30000D01*
X315050Y369636D02*
X314982Y368591D01*
X314845Y367552D01*
X314640Y366525D01*
X314369Y365513D01*
X314033Y364521D01*
X313632Y363553D01*
X313168Y362614D01*
X312645Y361706D01*
X312063Y360835D01*
X311425Y360004D01*
X310734Y359217D01*
X309993Y358476D01*
X309206Y357785D01*
X308375Y357148D01*
X307504Y356566D01*
X306596Y356042D01*
X305657Y355578D01*
X304689Y355177D01*
X303697Y354841D01*
X302685Y354570D01*
X301658Y354365D01*
X300619Y354229D01*
X299574Y354160D01*
X298526Y354160D01*
X297481Y354229D01*
X296442Y354365D01*
X295415Y354570D01*
X294403Y354841D01*
X293411Y355177D01*
X292443Y355578D01*
X291504Y356042D01*
X290596Y356566D01*
X289725Y357148D01*
X288894Y357785D01*
X288107Y358476D01*
X287366Y359217D01*
X286675Y360004D01*
X286038Y360835D01*
X285456Y361706D01*
X284932Y362614D01*
X284468Y363553D01*
X284067Y364521D01*
X283731Y365513D01*
X283460Y366525D01*
X283255Y367552D01*
X283119Y368591D01*
X283050Y369636D01*
X283050Y370684D01*
X283119Y371729D01*
X283255Y372768D01*
X283460Y373795D01*
X283731Y374807D01*
X284067Y375799D01*
X284468Y376767D01*
X284932Y377706D01*
X285456Y378614D01*
X286038Y379485D01*
X286675Y380316D01*
X287366Y381103D01*
X288107Y381844D01*
X288894Y382535D01*
X289725Y383173D01*
X290596Y383755D01*
X291504Y384278D01*
X292443Y384742D01*
X293411Y385143D01*
X294403Y385479D01*
X295415Y385750D01*
X296442Y385955D01*
X297481Y386092D01*
X298526Y386160D01*
X299574Y386160D01*
X300619Y386092D01*
X301658Y385955D01*
X302685Y385750D01*
X303697Y385479D01*
X304689Y385143D01*
X305657Y384742D01*
X306596Y384278D01*
X307504Y383755D01*
X308375Y383173D01*
X309206Y382535D01*
X309993Y381844D01*
X310734Y381103D01*
X311425Y380316D01*
X312063Y379485D01*
X312645Y378614D01*
X313168Y377706D01*
X313632Y376767D01*
X314033Y375799D01*
X314369Y374807D01*
X314640Y373795D01*
X314845Y372768D01*
X314982Y371729D01*
X315050Y370684D01*
X315050Y369636D01*
X46480Y29956D02*
X46412Y28911D01*
X46275Y27872D01*
X46070Y26845D01*
X45799Y25833D01*
X45463Y24841D01*
X45062Y23873D01*
X44598Y22934D01*
X44075Y22026D01*
X43493Y21155D01*
X42855Y20324D01*
X42164Y19537D01*
X41423Y18796D01*
X40636Y18105D01*
X39805Y17468D01*
X38934Y16886D01*
X38026Y16362D01*
X37087Y15898D01*
X36119Y15497D01*
X35127Y15161D01*
X34115Y14890D01*
X33088Y14685D01*
X32049Y14549D01*
X31004Y14480D01*
X29956Y14480D01*
X28911Y14549D01*
X27872Y14685D01*
X26845Y14890D01*
X25833Y15161D01*
X24841Y15497D01*
X23873Y15898D01*
X22934Y16362D01*
X22026Y16886D01*
X21155Y17468D01*
X20324Y18105D01*
X19537Y18796D01*
X18796Y19537D01*
X18105Y20324D01*
X17468Y21155D01*
X16886Y22026D01*
X16362Y22934D01*
X15898Y23873D01*
X15497Y24841D01*
X15161Y25833D01*
X14890Y26845D01*
X14685Y27872D01*
X14549Y28911D01*
X14480Y29956D01*
X14480Y31004D01*
X14549Y32049D01*
X14685Y33088D01*
X14890Y34115D01*
X15161Y35127D01*
X15497Y36119D01*
X15898Y37087D01*
X16362Y38026D01*
X16886Y38934D01*
X17468Y39805D01*
X18105Y40636D01*
X18796Y41423D01*
X19537Y42164D01*
X20324Y42855D01*
X21155Y43493D01*
X22026Y44075D01*
X22934Y44598D01*
X23873Y45062D01*
X24841Y45463D01*
X25833Y45799D01*
X26845Y46070D01*
X27872Y46275D01*
X28911Y46412D01*
X29956Y46480D01*
X31004Y46480D01*
X32049Y46412D01*
X33088Y46275D01*
X34115Y46070D01*
X35127Y45799D01*
X36119Y45463D01*
X37087Y45062D01*
X38026Y44598D01*
X38934Y44075D01*
X39805Y43493D01*
X40636Y42855D01*
X41423Y42164D01*
X42164Y41423D01*
X42855Y40636D01*
X43493Y39805D01*
X44075Y38934D01*
X44598Y38026D01*
X45062Y37087D01*
X45463Y36119D01*
X45799Y35127D01*
X46070Y34115D01*
X46275Y33088D01*
X46412Y32049D01*
X46480Y31004D01*
X46480Y29956D01*
M02*
