G04 EAGLE Gerber RS-274X export*
G75*
%MOMM*%
%FSLAX34Y34*%
%LPD*%
%INSilk top*%
%IPPOS*%
%AMOC8*
5,1,8,0,0,1.08239X$1,22.5*%
G01*
%ADD10C,0.000000*%
%ADD11C,0.200000*%
%ADD12C,0.228600*%
%ADD13C,0.001000*%
%ADD14C,0.508000*%
%ADD15C,0.254000*%

G36*
X269329Y308519D02*
X269329Y308519D01*
X269365Y308554D01*
X269371Y308557D01*
X269792Y310434D01*
X269788Y310441D01*
X269793Y310445D01*
X269793Y314409D01*
X270786Y315352D01*
X276745Y315352D01*
X276759Y315362D01*
X276760Y315362D01*
X276762Y315364D01*
X276773Y315361D01*
X278281Y316439D01*
X278290Y316470D01*
X278301Y316478D01*
X278365Y318464D01*
X278365Y318465D01*
X278365Y318466D01*
X278365Y324445D01*
X278351Y324463D01*
X278354Y324476D01*
X277177Y325907D01*
X277148Y325914D01*
X277140Y325925D01*
X275150Y325963D01*
X275149Y325963D01*
X271173Y325963D01*
X269793Y326520D01*
X269793Y330427D01*
X271605Y330557D01*
X275589Y330557D01*
X275592Y330559D01*
X275593Y330557D01*
X277555Y330741D01*
X277583Y330767D01*
X277595Y330770D01*
X278361Y332480D01*
X278360Y332485D01*
X278364Y332488D01*
X278359Y332495D01*
X278365Y332500D01*
X278365Y338479D01*
X278363Y338482D01*
X278365Y338485D01*
X278118Y340429D01*
X278089Y340458D01*
X278086Y340469D01*
X276318Y341130D01*
X276306Y341127D01*
X276301Y341133D01*
X270355Y341133D01*
X269793Y342508D01*
X269793Y344474D01*
X270652Y345551D01*
X276607Y345551D01*
X276610Y345553D01*
X276622Y345561D01*
X276631Y345557D01*
X278236Y346489D01*
X278246Y346515D01*
X278258Y346524D01*
X278256Y346527D01*
X278260Y346529D01*
X278365Y348509D01*
X278364Y348511D01*
X278365Y348511D01*
X278365Y354490D01*
X278352Y354508D01*
X278355Y354520D01*
X277231Y355992D01*
X277200Y356000D01*
X277193Y356011D01*
X275204Y356056D01*
X275203Y356056D01*
X271223Y356056D01*
X269652Y356424D01*
X269652Y360371D01*
X269650Y360372D01*
X269652Y360373D01*
X269556Y362352D01*
X269533Y362379D01*
X269531Y362392D01*
X267928Y363320D01*
X267869Y363313D01*
X267869Y363312D01*
X267868Y363312D01*
X266569Y361997D01*
X266565Y361973D01*
X266556Y361966D01*
X266557Y361965D01*
X266554Y361963D01*
X266554Y355984D01*
X266555Y355983D01*
X266554Y355982D01*
X266637Y353999D01*
X266659Y353972D01*
X266660Y353959D01*
X268223Y352967D01*
X268242Y352968D01*
X268249Y352959D01*
X274206Y352959D01*
X275127Y351945D01*
X275127Y349982D01*
X274525Y348648D01*
X268578Y348648D01*
X268567Y348639D01*
X268559Y348644D01*
X266815Y347931D01*
X266795Y347897D01*
X266785Y347891D01*
X266555Y345942D01*
X266557Y345938D01*
X266554Y345936D01*
X266554Y339957D01*
X266563Y339946D01*
X266558Y339938D01*
X267298Y338209D01*
X267332Y338190D01*
X267338Y338180D01*
X269292Y337966D01*
X269296Y337968D01*
X269297Y337966D01*
X273282Y337966D01*
X275127Y337868D01*
X275127Y333968D01*
X273573Y333584D01*
X269593Y333584D01*
X269591Y333583D01*
X269591Y333584D01*
X267608Y333495D01*
X267582Y333474D01*
X267569Y333473D01*
X266562Y331914D01*
X266564Y331894D01*
X266554Y331887D01*
X266554Y325908D01*
X266556Y325906D01*
X266554Y325905D01*
X266683Y323930D01*
X266707Y323903D01*
X266709Y323890D01*
X268350Y323013D01*
X268367Y323016D01*
X268373Y323007D01*
X274330Y323007D01*
X275268Y322010D01*
X275268Y320044D01*
X274785Y318590D01*
X268842Y318590D01*
X268833Y318583D01*
X268826Y318588D01*
X267024Y317992D01*
X267000Y317958D01*
X266990Y317953D01*
X266696Y316024D01*
X266699Y316019D01*
X266695Y316016D01*
X266695Y310038D01*
X266704Y310026D01*
X266700Y310018D01*
X267442Y308300D01*
X267493Y308271D01*
X269329Y308519D01*
G37*
G36*
X239468Y307950D02*
X239468Y307950D01*
X239481Y307948D01*
X240969Y309253D01*
X240970Y309255D01*
X240971Y309255D01*
X245242Y313427D01*
X245242Y313431D01*
X245245Y313431D01*
X246479Y314957D01*
X246479Y314964D01*
X246481Y314965D01*
X246480Y314966D01*
X246480Y314995D01*
X246487Y315006D01*
X245797Y316745D01*
X245784Y316753D01*
X245785Y316762D01*
X241454Y320822D01*
X242003Y322150D01*
X244879Y324886D01*
X244879Y324887D01*
X246287Y326289D01*
X246291Y326319D01*
X246301Y326328D01*
X246152Y328175D01*
X246135Y328194D01*
X246137Y328207D01*
X241785Y332266D01*
X241692Y333568D01*
X246103Y337555D01*
X246106Y337568D01*
X246109Y337571D01*
X246107Y337574D01*
X246108Y337580D01*
X246119Y337586D01*
X246321Y339432D01*
X246305Y339459D01*
X246307Y339472D01*
X244902Y340874D01*
X244901Y340874D01*
X244901Y340875D01*
X242005Y343590D01*
X241460Y344908D01*
X245806Y348952D01*
X245809Y348968D01*
X245818Y348971D01*
X246484Y350718D01*
X246483Y350719D01*
X246485Y350720D01*
X246482Y350724D01*
X246473Y350755D01*
X246475Y350767D01*
X245205Y352261D01*
X245201Y352262D01*
X245201Y352265D01*
X242289Y354974D01*
X241182Y356293D01*
X245503Y360344D01*
X245505Y360353D01*
X245511Y360354D01*
X246536Y361978D01*
X246535Y361996D01*
X246537Y361999D01*
X246534Y362003D01*
X246533Y362020D01*
X246537Y362030D01*
X245577Y363603D01*
X245522Y363624D01*
X245521Y363624D01*
X243733Y363091D01*
X243723Y363078D01*
X243713Y363079D01*
X237922Y357617D01*
X237919Y357602D01*
X237917Y357600D01*
X237909Y357597D01*
X237323Y355826D01*
X237336Y355790D01*
X237333Y355778D01*
X238630Y354299D01*
X238634Y354298D01*
X238634Y354296D01*
X241535Y351577D01*
X242491Y350256D01*
X238166Y346203D01*
X238165Y346192D01*
X238157Y346190D01*
X237259Y344518D01*
X237265Y344477D01*
X237262Y344466D01*
X238369Y342875D01*
X238376Y342873D01*
X238375Y342868D01*
X242608Y338724D01*
X241420Y337398D01*
X238517Y334678D01*
X238516Y334672D01*
X238512Y334673D01*
X237290Y333149D01*
X237290Y333116D01*
X237288Y333115D01*
X237289Y333114D01*
X237289Y333109D01*
X237284Y333099D01*
X238028Y331373D01*
X238040Y331366D01*
X238039Y331357D01*
X242368Y327300D01*
X241655Y325984D01*
X238747Y323279D01*
X238746Y323277D01*
X238745Y323277D01*
X237389Y321839D01*
X237385Y321804D01*
X237376Y321794D01*
X237775Y319975D01*
X237790Y319961D01*
X237789Y319949D01*
X242127Y315885D01*
X241923Y314545D01*
X237688Y310360D01*
X237684Y310334D01*
X237673Y310327D01*
X237620Y308481D01*
X237654Y308432D01*
X237655Y308433D01*
X237656Y308432D01*
X239435Y307937D01*
X239468Y307950D01*
G37*
G36*
X252863Y308223D02*
X252863Y308223D01*
X252864Y308222D01*
X254423Y309222D01*
X254429Y309237D01*
X254439Y309239D01*
X255381Y310882D01*
X258807Y312884D01*
X258810Y312890D01*
X258814Y312889D01*
X260331Y314170D01*
X260334Y314183D01*
X260343Y314184D01*
X261285Y315918D01*
X261283Y315929D01*
X261289Y315934D01*
X261286Y315937D01*
X261291Y315940D01*
X261343Y317914D01*
X261334Y317928D01*
X261338Y317937D01*
X260472Y319710D01*
X260460Y319716D01*
X260461Y319725D01*
X258989Y321056D01*
X258981Y321056D01*
X258981Y321062D01*
X255571Y323096D01*
X254531Y324626D01*
X255693Y326087D01*
X257418Y327062D01*
X257419Y327062D01*
X259129Y328081D01*
X259132Y328089D01*
X259138Y328088D01*
X260587Y329441D01*
X260589Y329456D01*
X260599Y329458D01*
X261371Y331272D01*
X261367Y331288D01*
X261375Y331295D01*
X261245Y333265D01*
X261235Y333277D01*
X261239Y333286D01*
X260233Y334987D01*
X260222Y334992D01*
X260222Y335000D01*
X258691Y336265D01*
X258685Y336266D01*
X258684Y336270D01*
X256956Y337257D01*
X255278Y338293D01*
X254598Y339961D01*
X256014Y341248D01*
X257754Y342204D01*
X257755Y342207D01*
X257757Y342206D01*
X259431Y343282D01*
X259434Y343290D01*
X259440Y343289D01*
X260791Y344739D01*
X260793Y344754D01*
X260802Y344757D01*
X261415Y346632D01*
X261410Y346647D01*
X261417Y346655D01*
X261115Y348604D01*
X261104Y348615D01*
X261107Y348625D01*
X259968Y350242D01*
X259957Y350245D01*
X259957Y350253D01*
X258374Y351455D01*
X258369Y351455D01*
X258368Y351459D01*
X256630Y352426D01*
X254998Y353514D01*
X254776Y355257D01*
X256335Y356422D01*
X258077Y357379D01*
X258079Y357382D01*
X258081Y357381D01*
X259723Y358503D01*
X259727Y358513D01*
X259734Y358513D01*
X260979Y360050D01*
X260980Y360059D01*
X260983Y360062D01*
X260980Y360066D01*
X260989Y360070D01*
X261430Y361994D01*
X261415Y362028D01*
X261416Y362040D01*
X260076Y363318D01*
X260053Y363321D01*
X260049Y363325D01*
X260032Y363325D01*
X260030Y363323D01*
X260017Y363325D01*
X260017Y363324D01*
X258439Y362355D01*
X258433Y362338D01*
X258422Y362337D01*
X257504Y360676D01*
X255807Y359664D01*
X254082Y358671D01*
X254079Y358665D01*
X254075Y358666D01*
X252549Y357396D01*
X252546Y357383D01*
X252537Y357382D01*
X251576Y355658D01*
X251578Y355642D01*
X251570Y355636D01*
X251503Y353663D01*
X251513Y353649D01*
X251508Y353640D01*
X252370Y351865D01*
X252382Y351859D01*
X252381Y351850D01*
X253853Y350518D01*
X253860Y350518D01*
X253861Y350513D01*
X257270Y348476D01*
X258321Y346949D01*
X257151Y345491D01*
X255454Y344466D01*
X255453Y344465D01*
X253779Y343387D01*
X253777Y343381D01*
X253772Y343381D01*
X252338Y342009D01*
X252336Y341996D01*
X252327Y341994D01*
X251503Y340200D01*
X251504Y340194D01*
X251500Y340191D01*
X251506Y340184D01*
X251498Y340178D01*
X251579Y338206D01*
X251590Y338193D01*
X251585Y338184D01*
X252560Y336466D01*
X252572Y336461D01*
X252571Y336453D01*
X254090Y335172D01*
X254096Y335172D01*
X254097Y335167D01*
X255822Y334175D01*
X257508Y333147D01*
X258278Y331504D01*
X256947Y330142D01*
X255189Y329224D01*
X255188Y329222D01*
X255186Y329222D01*
X253481Y328198D01*
X253477Y328189D01*
X253471Y328190D01*
X252086Y326774D01*
X252084Y326759D01*
X252074Y326756D01*
X251435Y324892D01*
X251440Y324877D01*
X251437Y324874D01*
X251438Y324873D01*
X251433Y324868D01*
X251750Y322922D01*
X251762Y322911D01*
X251759Y322901D01*
X252914Y321295D01*
X252924Y321291D01*
X252924Y321284D01*
X254514Y320090D01*
X254519Y320090D01*
X254520Y320087D01*
X256259Y319121D01*
X257881Y318020D01*
X258067Y316267D01*
X256506Y315103D01*
X254763Y314145D01*
X254762Y314142D01*
X254759Y314143D01*
X253118Y313020D01*
X253115Y313010D01*
X253108Y313010D01*
X251864Y311471D01*
X251864Y311455D01*
X251854Y311451D01*
X251425Y309527D01*
X251441Y309492D01*
X251440Y309480D01*
X252804Y308228D01*
X252863Y308222D01*
X252863Y308223D01*
G37*
G36*
X308864Y13543D02*
X308864Y13543D01*
X308867Y13540D01*
X310794Y13828D01*
X310834Y13870D01*
X310835Y13870D01*
X311104Y15803D01*
X311549Y17641D01*
X311547Y17645D01*
X311550Y17644D01*
X313988Y20814D01*
X313988Y20821D01*
X313993Y20822D01*
X314862Y22560D01*
X314851Y22619D01*
X314850Y22619D01*
X314850Y22620D01*
X314015Y23328D01*
X313991Y23329D01*
X313983Y23340D01*
X301951Y23340D01*
X301948Y23337D01*
X301946Y23340D01*
X299989Y23131D01*
X299946Y23090D01*
X299950Y23086D01*
X299945Y23082D01*
X299947Y21323D01*
X299960Y21305D01*
X299957Y21293D01*
X302399Y18118D01*
X303209Y16405D01*
X303218Y14411D01*
X303242Y14379D01*
X303244Y14367D01*
X304827Y13545D01*
X304843Y13548D01*
X304849Y13540D01*
X308860Y13540D01*
X308864Y13543D01*
G37*
G36*
X299530Y31153D02*
X299530Y31153D01*
X299533Y31152D01*
X301104Y32405D01*
X302828Y33442D01*
X304717Y34131D01*
X306703Y34447D01*
X308712Y34383D01*
X310673Y33939D01*
X312513Y33129D01*
X314169Y31980D01*
X314175Y31980D01*
X314176Y31976D01*
X315884Y31171D01*
X315885Y31170D01*
X315887Y31171D01*
X315942Y31183D01*
X315938Y31200D01*
X315953Y31208D01*
X316184Y32844D01*
X316166Y32876D01*
X316167Y32889D01*
X314623Y34193D01*
X314617Y34193D01*
X314617Y34198D01*
X312883Y35236D01*
X312877Y35236D01*
X312876Y35240D01*
X310997Y35984D01*
X310991Y35982D01*
X310989Y35986D01*
X309015Y36418D01*
X309010Y36415D01*
X309007Y36419D01*
X306989Y36528D01*
X306984Y36525D01*
X306981Y36528D01*
X304972Y36313D01*
X304968Y36309D01*
X304964Y36312D01*
X303015Y35777D01*
X303012Y35772D01*
X303008Y35774D01*
X301171Y34932D01*
X301168Y34927D01*
X301164Y34928D01*
X299488Y33799D01*
X299485Y33791D01*
X299478Y33791D01*
X298156Y32315D01*
X298152Y32255D01*
X298162Y32255D01*
X298162Y32244D01*
X299471Y31153D01*
X299530Y31150D01*
X299530Y31153D01*
G37*
G36*
X302472Y28631D02*
X302472Y28631D01*
X302485Y28627D01*
X304100Y29835D01*
X305992Y30507D01*
X307999Y30587D01*
X309940Y30070D01*
X311645Y28994D01*
X311658Y28995D01*
X311662Y28987D01*
X313410Y28675D01*
X313413Y28676D01*
X313415Y28674D01*
X313420Y28680D01*
X313463Y28702D01*
X313455Y28719D01*
X313467Y28733D01*
X313121Y30471D01*
X313102Y30489D01*
X313101Y30502D01*
X311446Y31670D01*
X311437Y31670D01*
X311435Y31676D01*
X309553Y32427D01*
X309545Y32425D01*
X309542Y32430D01*
X307538Y32726D01*
X307530Y32722D01*
X307526Y32726D01*
X305507Y32554D01*
X305501Y32548D01*
X305496Y32551D01*
X303571Y31917D01*
X303566Y31910D01*
X303561Y31912D01*
X301836Y30849D01*
X301830Y30834D01*
X301820Y30833D01*
X300800Y29222D01*
X300805Y29162D01*
X300821Y29164D01*
X300827Y29149D01*
X302440Y28620D01*
X302472Y28631D01*
G37*
%LPC*%
G36*
X308861Y18536D02*
X308861Y18536D01*
X308817Y18577D01*
X308814Y18574D01*
X308812Y18577D01*
X304824Y18577D01*
X303567Y20035D01*
X303225Y21125D01*
X311125Y21125D01*
X311022Y20143D01*
X309824Y18568D01*
X309824Y18552D01*
X309814Y18550D01*
X309816Y18540D01*
X309806Y18538D01*
X309112Y17114D01*
X308861Y18536D01*
G37*
%LPD*%
G36*
X309776Y25674D02*
X309776Y25674D01*
X310995Y26873D01*
X311003Y26932D01*
X310993Y26933D01*
X310994Y26944D01*
X309549Y28316D01*
X309532Y28318D01*
X309528Y28328D01*
X307565Y28866D01*
X307552Y28861D01*
X307551Y28861D01*
X307544Y28867D01*
X305531Y28564D01*
X305521Y28553D01*
X305512Y28556D01*
X303796Y27460D01*
X303779Y27412D01*
X303775Y27407D01*
X304159Y25718D01*
X304204Y25680D01*
X304214Y25691D01*
X304227Y25684D01*
X306003Y26470D01*
X307977Y26673D01*
X309717Y25666D01*
X309776Y25674D01*
G37*
%LPC*%
G36*
X306376Y15508D02*
X306376Y15508D01*
X305457Y16403D01*
X307276Y16468D01*
X308761Y16392D01*
X308330Y15508D01*
X306376Y15508D01*
G37*
%LPD*%
%LPC*%
G36*
X308915Y16483D02*
X308915Y16483D01*
X309068Y16799D01*
X309126Y16473D01*
X308915Y16483D01*
G37*
%LPD*%
D10*
X283050Y370160D02*
X283055Y370553D01*
X283069Y370945D01*
X283093Y371337D01*
X283127Y371728D01*
X283170Y372119D01*
X283223Y372508D01*
X283286Y372895D01*
X283357Y373281D01*
X283439Y373666D01*
X283529Y374048D01*
X283630Y374427D01*
X283739Y374805D01*
X283858Y375179D01*
X283985Y375550D01*
X284122Y375918D01*
X284268Y376283D01*
X284423Y376644D01*
X284586Y377001D01*
X284758Y377354D01*
X284939Y377702D01*
X285129Y378046D01*
X285326Y378386D01*
X285532Y378720D01*
X285746Y379049D01*
X285969Y379373D01*
X286199Y379691D01*
X286436Y380004D01*
X286682Y380310D01*
X286935Y380611D01*
X287195Y380905D01*
X287462Y381193D01*
X287736Y381474D01*
X288017Y381748D01*
X288305Y382015D01*
X288599Y382275D01*
X288900Y382528D01*
X289206Y382774D01*
X289519Y383011D01*
X289837Y383241D01*
X290161Y383464D01*
X290490Y383678D01*
X290824Y383884D01*
X291164Y384081D01*
X291508Y384271D01*
X291856Y384452D01*
X292209Y384624D01*
X292566Y384787D01*
X292927Y384942D01*
X293292Y385088D01*
X293660Y385225D01*
X294031Y385352D01*
X294405Y385471D01*
X294783Y385580D01*
X295162Y385681D01*
X295544Y385771D01*
X295929Y385853D01*
X296315Y385924D01*
X296702Y385987D01*
X297091Y386040D01*
X297482Y386083D01*
X297873Y386117D01*
X298265Y386141D01*
X298657Y386155D01*
X299050Y386160D01*
X299443Y386155D01*
X299835Y386141D01*
X300227Y386117D01*
X300618Y386083D01*
X301009Y386040D01*
X301398Y385987D01*
X301785Y385924D01*
X302171Y385853D01*
X302556Y385771D01*
X302938Y385681D01*
X303317Y385580D01*
X303695Y385471D01*
X304069Y385352D01*
X304440Y385225D01*
X304808Y385088D01*
X305173Y384942D01*
X305534Y384787D01*
X305891Y384624D01*
X306244Y384452D01*
X306592Y384271D01*
X306936Y384081D01*
X307276Y383884D01*
X307610Y383678D01*
X307939Y383464D01*
X308263Y383241D01*
X308581Y383011D01*
X308894Y382774D01*
X309200Y382528D01*
X309501Y382275D01*
X309795Y382015D01*
X310083Y381748D01*
X310364Y381474D01*
X310638Y381193D01*
X310905Y380905D01*
X311165Y380611D01*
X311418Y380310D01*
X311664Y380004D01*
X311901Y379691D01*
X312131Y379373D01*
X312354Y379049D01*
X312568Y378720D01*
X312774Y378386D01*
X312971Y378046D01*
X313161Y377702D01*
X313342Y377354D01*
X313514Y377001D01*
X313677Y376644D01*
X313832Y376283D01*
X313978Y375918D01*
X314115Y375550D01*
X314242Y375179D01*
X314361Y374805D01*
X314470Y374427D01*
X314571Y374048D01*
X314661Y373666D01*
X314743Y373281D01*
X314814Y372895D01*
X314877Y372508D01*
X314930Y372119D01*
X314973Y371728D01*
X315007Y371337D01*
X315031Y370945D01*
X315045Y370553D01*
X315050Y370160D01*
X315045Y369767D01*
X315031Y369375D01*
X315007Y368983D01*
X314973Y368592D01*
X314930Y368201D01*
X314877Y367812D01*
X314814Y367425D01*
X314743Y367039D01*
X314661Y366654D01*
X314571Y366272D01*
X314470Y365893D01*
X314361Y365515D01*
X314242Y365141D01*
X314115Y364770D01*
X313978Y364402D01*
X313832Y364037D01*
X313677Y363676D01*
X313514Y363319D01*
X313342Y362966D01*
X313161Y362618D01*
X312971Y362274D01*
X312774Y361934D01*
X312568Y361600D01*
X312354Y361271D01*
X312131Y360947D01*
X311901Y360629D01*
X311664Y360316D01*
X311418Y360010D01*
X311165Y359709D01*
X310905Y359415D01*
X310638Y359127D01*
X310364Y358846D01*
X310083Y358572D01*
X309795Y358305D01*
X309501Y358045D01*
X309200Y357792D01*
X308894Y357546D01*
X308581Y357309D01*
X308263Y357079D01*
X307939Y356856D01*
X307610Y356642D01*
X307276Y356436D01*
X306936Y356239D01*
X306592Y356049D01*
X306244Y355868D01*
X305891Y355696D01*
X305534Y355533D01*
X305173Y355378D01*
X304808Y355232D01*
X304440Y355095D01*
X304069Y354968D01*
X303695Y354849D01*
X303317Y354740D01*
X302938Y354639D01*
X302556Y354549D01*
X302171Y354467D01*
X301785Y354396D01*
X301398Y354333D01*
X301009Y354280D01*
X300618Y354237D01*
X300227Y354203D01*
X299835Y354179D01*
X299443Y354165D01*
X299050Y354160D01*
X298657Y354165D01*
X298265Y354179D01*
X297873Y354203D01*
X297482Y354237D01*
X297091Y354280D01*
X296702Y354333D01*
X296315Y354396D01*
X295929Y354467D01*
X295544Y354549D01*
X295162Y354639D01*
X294783Y354740D01*
X294405Y354849D01*
X294031Y354968D01*
X293660Y355095D01*
X293292Y355232D01*
X292927Y355378D01*
X292566Y355533D01*
X292209Y355696D01*
X291856Y355868D01*
X291508Y356049D01*
X291164Y356239D01*
X290824Y356436D01*
X290490Y356642D01*
X290161Y356856D01*
X289837Y357079D01*
X289519Y357309D01*
X289206Y357546D01*
X288900Y357792D01*
X288599Y358045D01*
X288305Y358305D01*
X288017Y358572D01*
X287736Y358846D01*
X287462Y359127D01*
X287195Y359415D01*
X286935Y359709D01*
X286682Y360010D01*
X286436Y360316D01*
X286199Y360629D01*
X285969Y360947D01*
X285746Y361271D01*
X285532Y361600D01*
X285326Y361934D01*
X285129Y362274D01*
X284939Y362618D01*
X284758Y362966D01*
X284586Y363319D01*
X284423Y363676D01*
X284268Y364037D01*
X284122Y364402D01*
X283985Y364770D01*
X283858Y365141D01*
X283739Y365515D01*
X283630Y365893D01*
X283529Y366272D01*
X283439Y366654D01*
X283357Y367039D01*
X283286Y367425D01*
X283223Y367812D01*
X283170Y368201D01*
X283127Y368592D01*
X283093Y368983D01*
X283069Y369375D01*
X283055Y369767D01*
X283050Y370160D01*
X14480Y30480D02*
X14485Y30873D01*
X14499Y31265D01*
X14523Y31657D01*
X14557Y32048D01*
X14600Y32439D01*
X14653Y32828D01*
X14716Y33215D01*
X14787Y33601D01*
X14869Y33986D01*
X14959Y34368D01*
X15060Y34747D01*
X15169Y35125D01*
X15288Y35499D01*
X15415Y35870D01*
X15552Y36238D01*
X15698Y36603D01*
X15853Y36964D01*
X16016Y37321D01*
X16188Y37674D01*
X16369Y38022D01*
X16559Y38366D01*
X16756Y38706D01*
X16962Y39040D01*
X17176Y39369D01*
X17399Y39693D01*
X17629Y40011D01*
X17866Y40324D01*
X18112Y40630D01*
X18365Y40931D01*
X18625Y41225D01*
X18892Y41513D01*
X19166Y41794D01*
X19447Y42068D01*
X19735Y42335D01*
X20029Y42595D01*
X20330Y42848D01*
X20636Y43094D01*
X20949Y43331D01*
X21267Y43561D01*
X21591Y43784D01*
X21920Y43998D01*
X22254Y44204D01*
X22594Y44401D01*
X22938Y44591D01*
X23286Y44772D01*
X23639Y44944D01*
X23996Y45107D01*
X24357Y45262D01*
X24722Y45408D01*
X25090Y45545D01*
X25461Y45672D01*
X25835Y45791D01*
X26213Y45900D01*
X26592Y46001D01*
X26974Y46091D01*
X27359Y46173D01*
X27745Y46244D01*
X28132Y46307D01*
X28521Y46360D01*
X28912Y46403D01*
X29303Y46437D01*
X29695Y46461D01*
X30087Y46475D01*
X30480Y46480D01*
X30873Y46475D01*
X31265Y46461D01*
X31657Y46437D01*
X32048Y46403D01*
X32439Y46360D01*
X32828Y46307D01*
X33215Y46244D01*
X33601Y46173D01*
X33986Y46091D01*
X34368Y46001D01*
X34747Y45900D01*
X35125Y45791D01*
X35499Y45672D01*
X35870Y45545D01*
X36238Y45408D01*
X36603Y45262D01*
X36964Y45107D01*
X37321Y44944D01*
X37674Y44772D01*
X38022Y44591D01*
X38366Y44401D01*
X38706Y44204D01*
X39040Y43998D01*
X39369Y43784D01*
X39693Y43561D01*
X40011Y43331D01*
X40324Y43094D01*
X40630Y42848D01*
X40931Y42595D01*
X41225Y42335D01*
X41513Y42068D01*
X41794Y41794D01*
X42068Y41513D01*
X42335Y41225D01*
X42595Y40931D01*
X42848Y40630D01*
X43094Y40324D01*
X43331Y40011D01*
X43561Y39693D01*
X43784Y39369D01*
X43998Y39040D01*
X44204Y38706D01*
X44401Y38366D01*
X44591Y38022D01*
X44772Y37674D01*
X44944Y37321D01*
X45107Y36964D01*
X45262Y36603D01*
X45408Y36238D01*
X45545Y35870D01*
X45672Y35499D01*
X45791Y35125D01*
X45900Y34747D01*
X46001Y34368D01*
X46091Y33986D01*
X46173Y33601D01*
X46244Y33215D01*
X46307Y32828D01*
X46360Y32439D01*
X46403Y32048D01*
X46437Y31657D01*
X46461Y31265D01*
X46475Y30873D01*
X46480Y30480D01*
X46475Y30087D01*
X46461Y29695D01*
X46437Y29303D01*
X46403Y28912D01*
X46360Y28521D01*
X46307Y28132D01*
X46244Y27745D01*
X46173Y27359D01*
X46091Y26974D01*
X46001Y26592D01*
X45900Y26213D01*
X45791Y25835D01*
X45672Y25461D01*
X45545Y25090D01*
X45408Y24722D01*
X45262Y24357D01*
X45107Y23996D01*
X44944Y23639D01*
X44772Y23286D01*
X44591Y22938D01*
X44401Y22594D01*
X44204Y22254D01*
X43998Y21920D01*
X43784Y21591D01*
X43561Y21267D01*
X43331Y20949D01*
X43094Y20636D01*
X42848Y20330D01*
X42595Y20029D01*
X42335Y19735D01*
X42068Y19447D01*
X41794Y19166D01*
X41513Y18892D01*
X41225Y18625D01*
X40931Y18365D01*
X40630Y18112D01*
X40324Y17866D01*
X40011Y17629D01*
X39693Y17399D01*
X39369Y17176D01*
X39040Y16962D01*
X38706Y16756D01*
X38366Y16559D01*
X38022Y16369D01*
X37674Y16188D01*
X37321Y16016D01*
X36964Y15853D01*
X36603Y15698D01*
X36238Y15552D01*
X35870Y15415D01*
X35499Y15288D01*
X35125Y15169D01*
X34747Y15060D01*
X34368Y14959D01*
X33986Y14869D01*
X33601Y14787D01*
X33215Y14716D01*
X32828Y14653D01*
X32439Y14600D01*
X32048Y14557D01*
X31657Y14523D01*
X31265Y14499D01*
X30873Y14485D01*
X30480Y14480D01*
X30087Y14485D01*
X29695Y14499D01*
X29303Y14523D01*
X28912Y14557D01*
X28521Y14600D01*
X28132Y14653D01*
X27745Y14716D01*
X27359Y14787D01*
X26974Y14869D01*
X26592Y14959D01*
X26213Y15060D01*
X25835Y15169D01*
X25461Y15288D01*
X25090Y15415D01*
X24722Y15552D01*
X24357Y15698D01*
X23996Y15853D01*
X23639Y16016D01*
X23286Y16188D01*
X22938Y16369D01*
X22594Y16559D01*
X22254Y16756D01*
X21920Y16962D01*
X21591Y17176D01*
X21267Y17399D01*
X20949Y17629D01*
X20636Y17866D01*
X20330Y18112D01*
X20029Y18365D01*
X19735Y18625D01*
X19447Y18892D01*
X19166Y19166D01*
X18892Y19447D01*
X18625Y19735D01*
X18365Y20029D01*
X18112Y20330D01*
X17866Y20636D01*
X17629Y20949D01*
X17399Y21267D01*
X17176Y21591D01*
X16962Y21920D01*
X16756Y22254D01*
X16559Y22594D01*
X16369Y22938D01*
X16188Y23286D01*
X16016Y23639D01*
X15853Y23996D01*
X15698Y24357D01*
X15552Y24722D01*
X15415Y25090D01*
X15288Y25461D01*
X15169Y25835D01*
X15060Y26213D01*
X14959Y26592D01*
X14869Y26974D01*
X14787Y27359D01*
X14716Y27745D01*
X14653Y28132D01*
X14600Y28521D01*
X14557Y28912D01*
X14523Y29303D01*
X14499Y29695D01*
X14485Y30087D01*
X14480Y30480D01*
D11*
X120650Y24130D02*
X120650Y13970D01*
X116840Y19050D02*
X124460Y19050D01*
X120650Y78740D02*
X120650Y86360D01*
D12*
X304958Y47963D02*
X305050Y47961D01*
X305141Y47955D01*
X305232Y47946D01*
X305323Y47932D01*
X305413Y47915D01*
X305502Y47893D01*
X305590Y47868D01*
X305677Y47840D01*
X305763Y47807D01*
X305847Y47771D01*
X305930Y47732D01*
X306011Y47689D01*
X306090Y47642D01*
X306167Y47593D01*
X306242Y47540D01*
X306314Y47484D01*
X306384Y47425D01*
X306452Y47363D01*
X306517Y47298D01*
X306579Y47230D01*
X306638Y47160D01*
X306694Y47088D01*
X306747Y47013D01*
X306796Y46936D01*
X306843Y46857D01*
X306886Y46776D01*
X306925Y46693D01*
X306961Y46609D01*
X306994Y46523D01*
X307022Y46436D01*
X307047Y46348D01*
X307069Y46259D01*
X307086Y46169D01*
X307100Y46078D01*
X307109Y45987D01*
X307115Y45896D01*
X307117Y45804D01*
X307115Y45671D01*
X307109Y45537D01*
X307099Y45404D01*
X307086Y45272D01*
X307068Y45140D01*
X307047Y45008D01*
X307022Y44877D01*
X306993Y44747D01*
X306960Y44618D01*
X306923Y44489D01*
X306883Y44362D01*
X306839Y44236D01*
X306791Y44112D01*
X306740Y43989D01*
X306685Y43867D01*
X306627Y43747D01*
X306565Y43629D01*
X306500Y43513D01*
X306431Y43399D01*
X306359Y43286D01*
X306284Y43176D01*
X306205Y43069D01*
X306124Y42963D01*
X306039Y42860D01*
X305952Y42759D01*
X305861Y42661D01*
X305768Y42566D01*
X299562Y42836D02*
X299470Y42838D01*
X299379Y42844D01*
X299288Y42853D01*
X299197Y42867D01*
X299107Y42884D01*
X299018Y42906D01*
X298930Y42931D01*
X298843Y42959D01*
X298757Y42992D01*
X298673Y43028D01*
X298590Y43067D01*
X298509Y43110D01*
X298430Y43157D01*
X298353Y43206D01*
X298278Y43259D01*
X298206Y43315D01*
X298136Y43374D01*
X298068Y43436D01*
X298003Y43501D01*
X297941Y43569D01*
X297882Y43639D01*
X297826Y43711D01*
X297773Y43786D01*
X297724Y43863D01*
X297677Y43942D01*
X297634Y44023D01*
X297595Y44106D01*
X297559Y44190D01*
X297526Y44276D01*
X297498Y44363D01*
X297473Y44451D01*
X297451Y44540D01*
X297434Y44630D01*
X297420Y44721D01*
X297411Y44812D01*
X297405Y44903D01*
X297403Y44995D01*
X297405Y45119D01*
X297411Y45243D01*
X297420Y45367D01*
X297433Y45490D01*
X297450Y45613D01*
X297471Y45735D01*
X297496Y45857D01*
X297524Y45977D01*
X297556Y46097D01*
X297592Y46216D01*
X297631Y46334D01*
X297674Y46450D01*
X297720Y46565D01*
X297770Y46679D01*
X297823Y46791D01*
X297880Y46901D01*
X297940Y47010D01*
X298003Y47116D01*
X298070Y47221D01*
X298140Y47323D01*
X298213Y47424D01*
X301451Y43916D02*
X301403Y43839D01*
X301352Y43763D01*
X301298Y43690D01*
X301240Y43619D01*
X301181Y43551D01*
X301118Y43485D01*
X301052Y43422D01*
X300984Y43361D01*
X300914Y43303D01*
X300841Y43249D01*
X300766Y43197D01*
X300689Y43149D01*
X300610Y43104D01*
X300529Y43062D01*
X300446Y43023D01*
X300362Y42988D01*
X300277Y42957D01*
X300190Y42929D01*
X300103Y42905D01*
X300014Y42884D01*
X299924Y42867D01*
X299834Y42854D01*
X299744Y42845D01*
X299653Y42839D01*
X299562Y42837D01*
X303069Y46884D02*
X303117Y46961D01*
X303168Y47037D01*
X303222Y47110D01*
X303280Y47181D01*
X303340Y47249D01*
X303402Y47315D01*
X303468Y47378D01*
X303536Y47439D01*
X303606Y47497D01*
X303679Y47551D01*
X303754Y47603D01*
X303831Y47651D01*
X303910Y47696D01*
X303991Y47738D01*
X304074Y47777D01*
X304158Y47812D01*
X304243Y47843D01*
X304330Y47871D01*
X304417Y47895D01*
X304506Y47916D01*
X304596Y47933D01*
X304686Y47946D01*
X304776Y47955D01*
X304867Y47961D01*
X304958Y47963D01*
X303070Y46884D02*
X301451Y43916D01*
X297403Y53637D02*
X307117Y53637D01*
X297403Y53637D02*
X297403Y56335D01*
X297405Y56437D01*
X297411Y56539D01*
X297420Y56641D01*
X297434Y56742D01*
X297451Y56843D01*
X297472Y56942D01*
X297497Y57042D01*
X297526Y57140D01*
X297558Y57236D01*
X297594Y57332D01*
X297633Y57426D01*
X297677Y57519D01*
X297723Y57610D01*
X297773Y57699D01*
X297826Y57786D01*
X297883Y57871D01*
X297943Y57954D01*
X298005Y58034D01*
X298071Y58112D01*
X298140Y58188D01*
X298211Y58261D01*
X298286Y58331D01*
X298362Y58398D01*
X298442Y58462D01*
X298523Y58524D01*
X298607Y58582D01*
X298693Y58637D01*
X298782Y58688D01*
X298872Y58737D01*
X298963Y58781D01*
X299057Y58823D01*
X299152Y58860D01*
X299248Y58895D01*
X299345Y58925D01*
X299444Y58952D01*
X299543Y58975D01*
X299644Y58994D01*
X299745Y59009D01*
X299846Y59021D01*
X299948Y59029D01*
X300050Y59033D01*
X300152Y59033D01*
X300254Y59029D01*
X300356Y59021D01*
X300457Y59009D01*
X300558Y58994D01*
X300659Y58975D01*
X300758Y58952D01*
X300857Y58925D01*
X300954Y58895D01*
X301050Y58860D01*
X301145Y58823D01*
X301239Y58781D01*
X301330Y58737D01*
X301420Y58688D01*
X301509Y58637D01*
X301595Y58582D01*
X301679Y58524D01*
X301760Y58462D01*
X301840Y58398D01*
X301916Y58331D01*
X301991Y58261D01*
X302062Y58188D01*
X302131Y58112D01*
X302197Y58034D01*
X302259Y57954D01*
X302319Y57871D01*
X302376Y57786D01*
X302429Y57699D01*
X302479Y57610D01*
X302525Y57519D01*
X302569Y57426D01*
X302608Y57332D01*
X302644Y57236D01*
X302676Y57140D01*
X302705Y57042D01*
X302730Y56942D01*
X302751Y56843D01*
X302768Y56742D01*
X302782Y56641D01*
X302791Y56539D01*
X302797Y56437D01*
X302799Y56335D01*
X302800Y56335D02*
X302800Y53637D01*
X276479Y285592D02*
X276377Y285594D01*
X276275Y285600D01*
X276173Y285609D01*
X276072Y285623D01*
X275971Y285640D01*
X275872Y285661D01*
X275772Y285686D01*
X275674Y285715D01*
X275578Y285747D01*
X275482Y285783D01*
X275388Y285822D01*
X275295Y285866D01*
X275204Y285912D01*
X275115Y285962D01*
X275028Y286015D01*
X274943Y286072D01*
X274860Y286132D01*
X274780Y286194D01*
X274702Y286260D01*
X274626Y286329D01*
X274553Y286400D01*
X274483Y286475D01*
X274416Y286551D01*
X274352Y286631D01*
X274290Y286712D01*
X274232Y286796D01*
X274177Y286882D01*
X274126Y286971D01*
X274077Y287061D01*
X274033Y287152D01*
X273991Y287246D01*
X273954Y287341D01*
X273919Y287437D01*
X273889Y287534D01*
X273862Y287633D01*
X273839Y287732D01*
X273820Y287833D01*
X273805Y287934D01*
X273793Y288035D01*
X273785Y288137D01*
X273781Y288239D01*
X273781Y288341D01*
X273785Y288443D01*
X273793Y288545D01*
X273805Y288646D01*
X273820Y288747D01*
X273839Y288848D01*
X273862Y288947D01*
X273889Y289046D01*
X273919Y289143D01*
X273954Y289239D01*
X273991Y289334D01*
X274033Y289428D01*
X274077Y289519D01*
X274126Y289609D01*
X274177Y289698D01*
X274232Y289784D01*
X274290Y289868D01*
X274352Y289949D01*
X274416Y290029D01*
X274483Y290105D01*
X274553Y290180D01*
X274626Y290251D01*
X274702Y290320D01*
X274780Y290386D01*
X274860Y290448D01*
X274943Y290508D01*
X275028Y290565D01*
X275115Y290618D01*
X275204Y290668D01*
X275295Y290714D01*
X275388Y290758D01*
X275482Y290797D01*
X275578Y290833D01*
X275674Y290865D01*
X275772Y290894D01*
X275872Y290919D01*
X275971Y290940D01*
X276072Y290957D01*
X276173Y290971D01*
X276275Y290980D01*
X276377Y290986D01*
X276479Y290988D01*
X276581Y290986D01*
X276683Y290980D01*
X276785Y290971D01*
X276886Y290957D01*
X276987Y290940D01*
X277086Y290919D01*
X277186Y290894D01*
X277284Y290865D01*
X277380Y290833D01*
X277476Y290797D01*
X277570Y290758D01*
X277663Y290714D01*
X277754Y290668D01*
X277843Y290618D01*
X277930Y290565D01*
X278015Y290508D01*
X278098Y290448D01*
X278178Y290386D01*
X278256Y290320D01*
X278332Y290251D01*
X278405Y290180D01*
X278475Y290105D01*
X278542Y290029D01*
X278606Y289949D01*
X278668Y289868D01*
X278726Y289784D01*
X278781Y289698D01*
X278832Y289609D01*
X278881Y289519D01*
X278925Y289428D01*
X278967Y289334D01*
X279004Y289239D01*
X279039Y289143D01*
X279069Y289046D01*
X279096Y288947D01*
X279119Y288848D01*
X279138Y288747D01*
X279153Y288646D01*
X279165Y288545D01*
X279173Y288443D01*
X279177Y288341D01*
X279177Y288239D01*
X279173Y288137D01*
X279165Y288035D01*
X279153Y287934D01*
X279138Y287833D01*
X279119Y287732D01*
X279096Y287633D01*
X279069Y287534D01*
X279039Y287437D01*
X279004Y287341D01*
X278967Y287246D01*
X278925Y287152D01*
X278881Y287061D01*
X278832Y286971D01*
X278781Y286882D01*
X278726Y286796D01*
X278668Y286712D01*
X278606Y286631D01*
X278542Y286551D01*
X278475Y286475D01*
X278405Y286400D01*
X278332Y286329D01*
X278256Y286260D01*
X278178Y286194D01*
X278098Y286132D01*
X278015Y286072D01*
X277930Y286015D01*
X277843Y285962D01*
X277754Y285912D01*
X277663Y285866D01*
X277570Y285822D01*
X277476Y285783D01*
X277380Y285747D01*
X277284Y285715D01*
X277186Y285686D01*
X277086Y285661D01*
X276987Y285640D01*
X276886Y285623D01*
X276785Y285609D01*
X276683Y285600D01*
X276581Y285594D01*
X276479Y285592D01*
X271622Y286131D02*
X271530Y286133D01*
X271439Y286139D01*
X271348Y286148D01*
X271257Y286162D01*
X271167Y286179D01*
X271078Y286201D01*
X270990Y286226D01*
X270903Y286254D01*
X270817Y286287D01*
X270733Y286323D01*
X270650Y286362D01*
X270569Y286405D01*
X270490Y286452D01*
X270413Y286501D01*
X270338Y286554D01*
X270266Y286610D01*
X270196Y286669D01*
X270128Y286731D01*
X270063Y286796D01*
X270001Y286864D01*
X269942Y286934D01*
X269886Y287006D01*
X269833Y287081D01*
X269784Y287158D01*
X269737Y287237D01*
X269694Y287318D01*
X269655Y287401D01*
X269619Y287485D01*
X269586Y287571D01*
X269558Y287658D01*
X269533Y287746D01*
X269511Y287835D01*
X269494Y287925D01*
X269480Y288016D01*
X269471Y288107D01*
X269465Y288198D01*
X269463Y288290D01*
X269465Y288382D01*
X269471Y288473D01*
X269480Y288564D01*
X269494Y288655D01*
X269511Y288745D01*
X269533Y288834D01*
X269558Y288922D01*
X269586Y289009D01*
X269619Y289095D01*
X269655Y289179D01*
X269694Y289262D01*
X269737Y289343D01*
X269784Y289422D01*
X269833Y289499D01*
X269886Y289574D01*
X269942Y289646D01*
X270001Y289716D01*
X270063Y289784D01*
X270128Y289849D01*
X270196Y289911D01*
X270266Y289970D01*
X270338Y290026D01*
X270413Y290079D01*
X270490Y290128D01*
X270569Y290175D01*
X270650Y290218D01*
X270733Y290257D01*
X270817Y290293D01*
X270903Y290326D01*
X270990Y290354D01*
X271078Y290379D01*
X271167Y290401D01*
X271257Y290418D01*
X271348Y290432D01*
X271439Y290441D01*
X271530Y290447D01*
X271622Y290449D01*
X271714Y290447D01*
X271805Y290441D01*
X271896Y290432D01*
X271987Y290418D01*
X272077Y290401D01*
X272166Y290379D01*
X272254Y290354D01*
X272341Y290326D01*
X272427Y290293D01*
X272511Y290257D01*
X272594Y290218D01*
X272675Y290175D01*
X272754Y290128D01*
X272831Y290079D01*
X272906Y290026D01*
X272978Y289970D01*
X273048Y289911D01*
X273116Y289849D01*
X273181Y289784D01*
X273243Y289716D01*
X273302Y289646D01*
X273358Y289574D01*
X273411Y289499D01*
X273460Y289422D01*
X273507Y289343D01*
X273550Y289262D01*
X273589Y289179D01*
X273625Y289095D01*
X273658Y289009D01*
X273686Y288922D01*
X273711Y288834D01*
X273733Y288745D01*
X273750Y288655D01*
X273764Y288564D01*
X273773Y288473D01*
X273779Y288382D01*
X273781Y288290D01*
X273779Y288198D01*
X273773Y288107D01*
X273764Y288016D01*
X273750Y287925D01*
X273733Y287835D01*
X273711Y287746D01*
X273686Y287658D01*
X273658Y287571D01*
X273625Y287485D01*
X273589Y287401D01*
X273550Y287318D01*
X273507Y287237D01*
X273460Y287158D01*
X273411Y287081D01*
X273358Y287006D01*
X273302Y286934D01*
X273243Y286864D01*
X273181Y286796D01*
X273116Y286731D01*
X273048Y286669D01*
X272978Y286610D01*
X272906Y286554D01*
X272831Y286501D01*
X272754Y286452D01*
X272675Y286405D01*
X272594Y286362D01*
X272511Y286323D01*
X272427Y286287D01*
X272341Y286254D01*
X272254Y286226D01*
X272166Y286201D01*
X272077Y286179D01*
X271987Y286162D01*
X271896Y286148D01*
X271805Y286139D01*
X271714Y286133D01*
X271622Y286131D01*
X270542Y260192D02*
X269463Y260192D01*
X269463Y265588D01*
X279177Y262890D01*
X273780Y238030D02*
X273780Y234792D01*
X273780Y238030D02*
X273782Y238122D01*
X273788Y238213D01*
X273797Y238304D01*
X273811Y238395D01*
X273828Y238485D01*
X273850Y238574D01*
X273875Y238662D01*
X273903Y238749D01*
X273936Y238835D01*
X273972Y238919D01*
X274011Y239002D01*
X274054Y239083D01*
X274101Y239162D01*
X274150Y239239D01*
X274203Y239314D01*
X274259Y239386D01*
X274318Y239456D01*
X274380Y239524D01*
X274445Y239589D01*
X274513Y239651D01*
X274583Y239710D01*
X274655Y239766D01*
X274730Y239819D01*
X274807Y239868D01*
X274886Y239915D01*
X274967Y239958D01*
X275050Y239997D01*
X275134Y240033D01*
X275220Y240066D01*
X275307Y240094D01*
X275395Y240119D01*
X275484Y240141D01*
X275574Y240158D01*
X275665Y240172D01*
X275756Y240181D01*
X275847Y240187D01*
X275939Y240189D01*
X275939Y240188D02*
X276479Y240188D01*
X276581Y240186D01*
X276683Y240180D01*
X276785Y240171D01*
X276886Y240157D01*
X276987Y240140D01*
X277086Y240119D01*
X277186Y240094D01*
X277284Y240065D01*
X277380Y240033D01*
X277476Y239997D01*
X277570Y239958D01*
X277663Y239914D01*
X277754Y239868D01*
X277843Y239818D01*
X277930Y239765D01*
X278015Y239708D01*
X278098Y239648D01*
X278178Y239586D01*
X278256Y239520D01*
X278332Y239451D01*
X278405Y239380D01*
X278475Y239305D01*
X278542Y239229D01*
X278606Y239149D01*
X278668Y239068D01*
X278726Y238984D01*
X278781Y238898D01*
X278832Y238809D01*
X278881Y238719D01*
X278925Y238628D01*
X278967Y238534D01*
X279004Y238439D01*
X279039Y238343D01*
X279069Y238246D01*
X279096Y238147D01*
X279119Y238048D01*
X279138Y237947D01*
X279153Y237846D01*
X279165Y237745D01*
X279173Y237643D01*
X279177Y237541D01*
X279177Y237439D01*
X279173Y237337D01*
X279165Y237235D01*
X279153Y237134D01*
X279138Y237033D01*
X279119Y236932D01*
X279096Y236833D01*
X279069Y236734D01*
X279039Y236637D01*
X279004Y236541D01*
X278967Y236446D01*
X278925Y236352D01*
X278881Y236261D01*
X278832Y236171D01*
X278781Y236082D01*
X278726Y235996D01*
X278668Y235912D01*
X278606Y235831D01*
X278542Y235751D01*
X278475Y235675D01*
X278405Y235600D01*
X278332Y235529D01*
X278256Y235460D01*
X278178Y235394D01*
X278098Y235332D01*
X278015Y235272D01*
X277930Y235215D01*
X277843Y235162D01*
X277754Y235112D01*
X277663Y235066D01*
X277570Y235022D01*
X277476Y234983D01*
X277380Y234947D01*
X277284Y234915D01*
X277186Y234886D01*
X277086Y234861D01*
X276987Y234840D01*
X276886Y234823D01*
X276785Y234809D01*
X276683Y234800D01*
X276581Y234794D01*
X276479Y234792D01*
X273780Y234792D01*
X273650Y234794D01*
X273519Y234800D01*
X273389Y234810D01*
X273260Y234823D01*
X273130Y234841D01*
X273002Y234863D01*
X272874Y234888D01*
X272747Y234917D01*
X272621Y234951D01*
X272496Y234987D01*
X272372Y235028D01*
X272249Y235073D01*
X272128Y235121D01*
X272008Y235172D01*
X271890Y235228D01*
X271774Y235286D01*
X271659Y235349D01*
X271547Y235415D01*
X271436Y235484D01*
X271328Y235556D01*
X271221Y235632D01*
X271118Y235711D01*
X271016Y235793D01*
X270917Y235878D01*
X270821Y235966D01*
X270727Y236056D01*
X270637Y236150D01*
X270549Y236246D01*
X270464Y236345D01*
X270382Y236447D01*
X270303Y236550D01*
X270227Y236657D01*
X270155Y236765D01*
X270086Y236876D01*
X270020Y236988D01*
X269958Y237103D01*
X269899Y237219D01*
X269843Y237337D01*
X269792Y237457D01*
X269744Y237578D01*
X269699Y237701D01*
X269658Y237825D01*
X269622Y237950D01*
X269588Y238076D01*
X269559Y238203D01*
X269534Y238331D01*
X269512Y238459D01*
X269494Y238589D01*
X269481Y238718D01*
X269471Y238848D01*
X269465Y238979D01*
X269463Y239109D01*
X279177Y212630D02*
X279177Y209392D01*
X279177Y212630D02*
X279175Y212722D01*
X279169Y212813D01*
X279160Y212904D01*
X279146Y212995D01*
X279129Y213085D01*
X279107Y213174D01*
X279082Y213262D01*
X279054Y213349D01*
X279021Y213435D01*
X278985Y213519D01*
X278946Y213602D01*
X278903Y213683D01*
X278856Y213762D01*
X278807Y213839D01*
X278754Y213914D01*
X278698Y213986D01*
X278639Y214056D01*
X278577Y214124D01*
X278512Y214189D01*
X278444Y214251D01*
X278374Y214310D01*
X278302Y214366D01*
X278227Y214419D01*
X278150Y214468D01*
X278071Y214515D01*
X277990Y214558D01*
X277907Y214597D01*
X277823Y214633D01*
X277737Y214666D01*
X277650Y214694D01*
X277562Y214719D01*
X277473Y214741D01*
X277383Y214758D01*
X277292Y214772D01*
X277201Y214781D01*
X277110Y214787D01*
X277018Y214789D01*
X277018Y214788D02*
X275939Y214788D01*
X275939Y214789D02*
X275847Y214787D01*
X275756Y214781D01*
X275665Y214772D01*
X275574Y214758D01*
X275484Y214741D01*
X275395Y214719D01*
X275307Y214694D01*
X275220Y214666D01*
X275134Y214633D01*
X275050Y214597D01*
X274967Y214558D01*
X274886Y214515D01*
X274807Y214468D01*
X274730Y214419D01*
X274655Y214366D01*
X274583Y214310D01*
X274513Y214251D01*
X274445Y214189D01*
X274380Y214124D01*
X274318Y214056D01*
X274259Y213986D01*
X274203Y213914D01*
X274150Y213839D01*
X274101Y213762D01*
X274054Y213683D01*
X274011Y213602D01*
X273972Y213519D01*
X273936Y213435D01*
X273903Y213349D01*
X273875Y213262D01*
X273850Y213174D01*
X273828Y213085D01*
X273811Y212995D01*
X273797Y212904D01*
X273788Y212813D01*
X273782Y212722D01*
X273780Y212630D01*
X273780Y209392D01*
X269463Y209392D01*
X269463Y214788D01*
X269463Y186150D02*
X277018Y183992D01*
X277018Y189388D01*
X274860Y187769D02*
X279177Y187769D01*
X279177Y161290D02*
X279177Y158592D01*
X279177Y161290D02*
X279175Y161392D01*
X279169Y161494D01*
X279160Y161596D01*
X279146Y161697D01*
X279129Y161798D01*
X279108Y161897D01*
X279083Y161997D01*
X279054Y162095D01*
X279022Y162191D01*
X278986Y162287D01*
X278947Y162381D01*
X278903Y162474D01*
X278857Y162565D01*
X278807Y162654D01*
X278754Y162741D01*
X278697Y162826D01*
X278637Y162909D01*
X278575Y162989D01*
X278509Y163067D01*
X278440Y163143D01*
X278369Y163216D01*
X278294Y163286D01*
X278218Y163353D01*
X278138Y163417D01*
X278057Y163479D01*
X277973Y163537D01*
X277887Y163592D01*
X277798Y163643D01*
X277708Y163692D01*
X277617Y163736D01*
X277523Y163778D01*
X277428Y163815D01*
X277332Y163850D01*
X277235Y163880D01*
X277136Y163907D01*
X277037Y163930D01*
X276936Y163949D01*
X276835Y163964D01*
X276734Y163976D01*
X276632Y163984D01*
X276530Y163988D01*
X276428Y163988D01*
X276326Y163984D01*
X276224Y163976D01*
X276123Y163964D01*
X276022Y163949D01*
X275921Y163930D01*
X275822Y163907D01*
X275723Y163880D01*
X275626Y163850D01*
X275530Y163815D01*
X275435Y163778D01*
X275341Y163736D01*
X275250Y163692D01*
X275160Y163643D01*
X275071Y163592D01*
X274985Y163537D01*
X274901Y163479D01*
X274820Y163417D01*
X274740Y163353D01*
X274664Y163286D01*
X274589Y163216D01*
X274518Y163143D01*
X274449Y163067D01*
X274383Y162989D01*
X274321Y162909D01*
X274261Y162826D01*
X274204Y162741D01*
X274151Y162654D01*
X274101Y162565D01*
X274055Y162474D01*
X274011Y162381D01*
X273972Y162287D01*
X273936Y162191D01*
X273904Y162095D01*
X273875Y161997D01*
X273850Y161897D01*
X273829Y161798D01*
X273812Y161697D01*
X273798Y161596D01*
X273789Y161494D01*
X273783Y161392D01*
X273781Y161290D01*
X269463Y161830D02*
X269463Y158592D01*
X269463Y161830D02*
X269465Y161922D01*
X269471Y162013D01*
X269480Y162104D01*
X269494Y162195D01*
X269511Y162285D01*
X269533Y162374D01*
X269558Y162462D01*
X269586Y162549D01*
X269619Y162635D01*
X269655Y162719D01*
X269694Y162802D01*
X269737Y162883D01*
X269784Y162962D01*
X269833Y163039D01*
X269886Y163114D01*
X269942Y163186D01*
X270001Y163256D01*
X270063Y163324D01*
X270128Y163389D01*
X270196Y163451D01*
X270266Y163510D01*
X270338Y163566D01*
X270413Y163619D01*
X270490Y163668D01*
X270569Y163715D01*
X270650Y163758D01*
X270733Y163797D01*
X270817Y163833D01*
X270903Y163866D01*
X270990Y163894D01*
X271078Y163919D01*
X271167Y163941D01*
X271257Y163958D01*
X271348Y163972D01*
X271439Y163981D01*
X271530Y163987D01*
X271622Y163989D01*
X271714Y163987D01*
X271805Y163981D01*
X271896Y163972D01*
X271987Y163958D01*
X272077Y163941D01*
X272166Y163919D01*
X272254Y163894D01*
X272341Y163866D01*
X272427Y163833D01*
X272511Y163797D01*
X272594Y163758D01*
X272675Y163715D01*
X272754Y163668D01*
X272831Y163619D01*
X272906Y163566D01*
X272978Y163510D01*
X273048Y163451D01*
X273116Y163389D01*
X273181Y163324D01*
X273243Y163256D01*
X273302Y163186D01*
X273358Y163114D01*
X273411Y163039D01*
X273460Y162962D01*
X273507Y162883D01*
X273550Y162802D01*
X273589Y162719D01*
X273625Y162635D01*
X273658Y162549D01*
X273686Y162462D01*
X273711Y162374D01*
X273733Y162285D01*
X273750Y162195D01*
X273764Y162104D01*
X273773Y162013D01*
X273779Y161922D01*
X273781Y161830D01*
X273780Y161830D02*
X273780Y159671D01*
X271892Y138589D02*
X271794Y138587D01*
X271697Y138581D01*
X271599Y138571D01*
X271502Y138558D01*
X271406Y138540D01*
X271311Y138518D01*
X271216Y138493D01*
X271123Y138464D01*
X271031Y138431D01*
X270940Y138395D01*
X270851Y138354D01*
X270763Y138311D01*
X270678Y138264D01*
X270594Y138213D01*
X270512Y138159D01*
X270433Y138102D01*
X270356Y138042D01*
X270281Y137978D01*
X270209Y137912D01*
X270140Y137843D01*
X270074Y137771D01*
X270011Y137696D01*
X269950Y137619D01*
X269893Y137540D01*
X269839Y137458D01*
X269788Y137375D01*
X269741Y137289D01*
X269698Y137201D01*
X269657Y137112D01*
X269621Y137021D01*
X269588Y136929D01*
X269559Y136836D01*
X269534Y136741D01*
X269512Y136646D01*
X269494Y136550D01*
X269481Y136453D01*
X269471Y136356D01*
X269465Y136258D01*
X269463Y136160D01*
X269465Y136051D01*
X269471Y135942D01*
X269480Y135834D01*
X269493Y135726D01*
X269510Y135618D01*
X269531Y135511D01*
X269556Y135405D01*
X269584Y135299D01*
X269616Y135195D01*
X269651Y135092D01*
X269691Y134990D01*
X269733Y134890D01*
X269779Y134791D01*
X269829Y134694D01*
X269882Y134599D01*
X269938Y134506D01*
X269997Y134414D01*
X270060Y134325D01*
X270125Y134238D01*
X270194Y134153D01*
X270266Y134071D01*
X270340Y133991D01*
X270417Y133914D01*
X270497Y133840D01*
X270579Y133769D01*
X270664Y133700D01*
X270751Y133635D01*
X270840Y133572D01*
X270932Y133513D01*
X271025Y133457D01*
X271121Y133404D01*
X271218Y133355D01*
X271317Y133309D01*
X271417Y133266D01*
X271519Y133227D01*
X271622Y133192D01*
X273781Y137779D02*
X273710Y137850D01*
X273636Y137919D01*
X273560Y137985D01*
X273482Y138047D01*
X273401Y138107D01*
X273318Y138164D01*
X273233Y138217D01*
X273145Y138267D01*
X273056Y138314D01*
X272965Y138357D01*
X272873Y138396D01*
X272779Y138433D01*
X272684Y138465D01*
X272587Y138494D01*
X272490Y138519D01*
X272392Y138540D01*
X272293Y138557D01*
X272193Y138571D01*
X272093Y138580D01*
X271993Y138586D01*
X271892Y138588D01*
X273780Y137779D02*
X279177Y133192D01*
X279177Y138588D01*
X269463Y110490D02*
X271622Y107792D01*
X269463Y110490D02*
X279177Y110490D01*
X279177Y107792D02*
X279177Y113188D01*
D13*
X300000Y0D02*
X30000Y0D01*
X23954Y610D01*
X18323Y2358D01*
X13227Y5124D01*
X8787Y8787D01*
X5124Y13227D01*
X2358Y18323D01*
X610Y23954D01*
X0Y30000D01*
X0Y370000D01*
X610Y376046D01*
X2358Y381677D01*
X5124Y386773D01*
X8787Y391213D01*
X13227Y394877D01*
X18323Y397643D01*
X23954Y399391D01*
X30000Y400000D01*
X300000Y400000D01*
X306046Y399391D01*
X311677Y397643D01*
X316773Y394877D01*
X321213Y391213D01*
X324877Y386773D01*
X327643Y381677D01*
X329391Y376046D01*
X330000Y370000D01*
X330000Y30000D01*
X329391Y23954D01*
X327643Y18323D01*
X324877Y13227D01*
X321213Y8787D01*
X316773Y5124D01*
X311677Y2358D01*
X306046Y610D01*
X300000Y0D01*
D11*
X82550Y12700D02*
X69850Y12700D01*
X69850Y88900D01*
X82550Y88900D01*
X107950Y88900D01*
X107950Y76200D01*
X82550Y76200D01*
X82550Y25400D02*
X107950Y25400D01*
X107950Y12700D01*
X82550Y12700D01*
X82550Y88900D01*
X234950Y12700D02*
X292100Y12700D01*
X292100Y88900D01*
X234950Y88900D01*
X234950Y12700D01*
X190500Y25400D02*
X189881Y25408D01*
X189263Y25430D01*
X188646Y25468D01*
X188030Y25520D01*
X187415Y25588D01*
X186802Y25671D01*
X186191Y25768D01*
X185583Y25881D01*
X184977Y26008D01*
X184375Y26150D01*
X183777Y26306D01*
X183182Y26477D01*
X182592Y26662D01*
X182007Y26862D01*
X181426Y27076D01*
X180851Y27304D01*
X180282Y27546D01*
X179719Y27802D01*
X179162Y28071D01*
X178612Y28354D01*
X178069Y28650D01*
X177533Y28959D01*
X177005Y29281D01*
X176485Y29616D01*
X175973Y29964D01*
X175470Y30324D01*
X174976Y30696D01*
X174491Y31080D01*
X174016Y31476D01*
X173550Y31883D01*
X173094Y32301D01*
X172649Y32730D01*
X172214Y33171D01*
X171791Y33621D01*
X171378Y34082D01*
X170976Y34552D01*
X170587Y35033D01*
X170208Y35522D01*
X169842Y36021D01*
X169489Y36528D01*
X169147Y37044D01*
X168819Y37568D01*
X168503Y38100D01*
X168200Y38639D01*
X167911Y39186D01*
X167635Y39740D01*
X167372Y40300D01*
X167123Y40866D01*
X166888Y41438D01*
X166667Y42016D01*
X166460Y42599D01*
X166268Y43187D01*
X166090Y43779D01*
X165926Y44375D01*
X165777Y44976D01*
X165642Y45580D01*
X165523Y46186D01*
X165418Y46796D01*
X165328Y47408D01*
X165252Y48022D01*
X165192Y48638D01*
X165147Y49255D01*
X165117Y49872D01*
X165102Y50491D01*
X165102Y51109D01*
X165117Y51728D01*
X165147Y52345D01*
X165192Y52962D01*
X165252Y53578D01*
X165328Y54192D01*
X165418Y54804D01*
X165523Y55414D01*
X165642Y56020D01*
X165777Y56624D01*
X165926Y57225D01*
X166090Y57821D01*
X166268Y58413D01*
X166460Y59001D01*
X166667Y59584D01*
X166888Y60162D01*
X167123Y60734D01*
X167372Y61300D01*
X167635Y61860D01*
X167911Y62414D01*
X168200Y62961D01*
X168503Y63500D01*
X168819Y64032D01*
X169147Y64556D01*
X169489Y65072D01*
X169842Y65579D01*
X170208Y66078D01*
X170587Y66567D01*
X170976Y67048D01*
X171378Y67518D01*
X171791Y67979D01*
X172214Y68429D01*
X172649Y68870D01*
X173094Y69299D01*
X173550Y69717D01*
X174016Y70124D01*
X174491Y70520D01*
X174976Y70904D01*
X175470Y71276D01*
X175973Y71636D01*
X176485Y71984D01*
X177005Y72319D01*
X177533Y72641D01*
X178069Y72950D01*
X178612Y73246D01*
X179162Y73529D01*
X179719Y73798D01*
X180282Y74054D01*
X180851Y74296D01*
X181426Y74524D01*
X182007Y74738D01*
X182592Y74938D01*
X183182Y75123D01*
X183777Y75294D01*
X184375Y75450D01*
X184977Y75592D01*
X185583Y75719D01*
X186191Y75832D01*
X186802Y75929D01*
X187415Y76012D01*
X188030Y76080D01*
X188646Y76132D01*
X189263Y76170D01*
X189881Y76192D01*
X190500Y76200D01*
X203200Y76200D01*
X203200Y25400D01*
X190500Y25400D01*
X65150Y149939D02*
X49150Y149939D01*
X49150Y134541D02*
X65150Y134541D01*
X137050Y60800D02*
X137050Y40800D01*
X155050Y40800D02*
X155050Y60800D01*
X147050Y48800D02*
X145050Y48800D01*
X147050Y48800D02*
X146050Y51800D01*
X145050Y48800D01*
X144050Y54800D02*
X148050Y54800D01*
X228600Y177800D02*
X228600Y355800D01*
X18600Y355800D01*
X18600Y184515D01*
X25315Y177800D01*
X228600Y177800D01*
X4360Y221800D02*
X4360Y311750D01*
X77880Y311750D01*
X77880Y221760D01*
X4350Y221760D01*
D14*
X46990Y168910D03*
D11*
X318000Y98400D02*
X318000Y301600D01*
X318000Y98400D02*
X232000Y98400D01*
X232000Y301600D01*
X318000Y301600D01*
X326000Y291440D02*
X326000Y286360D01*
X326000Y266040D02*
X326000Y260960D01*
X326000Y240640D02*
X326000Y235560D01*
X326000Y215240D02*
X326000Y210160D01*
X326000Y189840D02*
X326000Y184760D01*
X326000Y164440D02*
X326000Y159360D01*
X326000Y139040D02*
X326000Y133960D01*
X326000Y113640D02*
X326000Y108560D01*
D15*
X0Y30000D02*
X610Y23954D01*
X2358Y18323D01*
X5124Y13227D01*
X8787Y8787D01*
X13227Y5124D01*
X18323Y2358D01*
X23954Y610D01*
X30000Y0D01*
X300000Y0D01*
X306046Y610D01*
X311677Y2358D01*
X316773Y5124D01*
X321213Y8787D01*
X324877Y13227D01*
X327643Y18323D01*
X329391Y23954D01*
X330000Y30000D01*
X330000Y370000D01*
X329391Y376046D01*
X327643Y381677D01*
X324877Y386773D01*
X321213Y391213D01*
X316773Y394877D01*
X311677Y397643D01*
X306046Y399391D01*
X300000Y400000D01*
X30000Y400000D01*
X23954Y399391D01*
X18323Y397643D01*
X13227Y394877D01*
X8787Y391213D01*
X5124Y386773D01*
X2358Y381677D01*
X610Y376046D01*
X0Y370000D01*
X0Y30000D01*
X315050Y369636D02*
X314982Y368591D01*
X314845Y367552D01*
X314640Y366525D01*
X314369Y365513D01*
X314033Y364521D01*
X313632Y363553D01*
X313168Y362614D01*
X312645Y361706D01*
X312063Y360835D01*
X311425Y360004D01*
X310734Y359217D01*
X309993Y358476D01*
X309206Y357785D01*
X308375Y357148D01*
X307504Y356566D01*
X306596Y356042D01*
X305657Y355578D01*
X304689Y355177D01*
X303697Y354841D01*
X302685Y354570D01*
X301658Y354365D01*
X300619Y354229D01*
X299574Y354160D01*
X298526Y354160D01*
X297481Y354229D01*
X296442Y354365D01*
X295415Y354570D01*
X294403Y354841D01*
X293411Y355177D01*
X292443Y355578D01*
X291504Y356042D01*
X290596Y356566D01*
X289725Y357148D01*
X288894Y357785D01*
X288107Y358476D01*
X287366Y359217D01*
X286675Y360004D01*
X286038Y360835D01*
X285456Y361706D01*
X284932Y362614D01*
X284468Y363553D01*
X284067Y364521D01*
X283731Y365513D01*
X283460Y366525D01*
X283255Y367552D01*
X283119Y368591D01*
X283050Y369636D01*
X283050Y370684D01*
X283119Y371729D01*
X283255Y372768D01*
X283460Y373795D01*
X283731Y374807D01*
X284067Y375799D01*
X284468Y376767D01*
X284932Y377706D01*
X285456Y378614D01*
X286038Y379485D01*
X286675Y380316D01*
X287366Y381103D01*
X288107Y381844D01*
X288894Y382535D01*
X289725Y383173D01*
X290596Y383755D01*
X291504Y384278D01*
X292443Y384742D01*
X293411Y385143D01*
X294403Y385479D01*
X295415Y385750D01*
X296442Y385955D01*
X297481Y386092D01*
X298526Y386160D01*
X299574Y386160D01*
X300619Y386092D01*
X301658Y385955D01*
X302685Y385750D01*
X303697Y385479D01*
X304689Y385143D01*
X305657Y384742D01*
X306596Y384278D01*
X307504Y383755D01*
X308375Y383173D01*
X309206Y382535D01*
X309993Y381844D01*
X310734Y381103D01*
X311425Y380316D01*
X312063Y379485D01*
X312645Y378614D01*
X313168Y377706D01*
X313632Y376767D01*
X314033Y375799D01*
X314369Y374807D01*
X314640Y373795D01*
X314845Y372768D01*
X314982Y371729D01*
X315050Y370684D01*
X315050Y369636D01*
X46480Y29956D02*
X46412Y28911D01*
X46275Y27872D01*
X46070Y26845D01*
X45799Y25833D01*
X45463Y24841D01*
X45062Y23873D01*
X44598Y22934D01*
X44075Y22026D01*
X43493Y21155D01*
X42855Y20324D01*
X42164Y19537D01*
X41423Y18796D01*
X40636Y18105D01*
X39805Y17468D01*
X38934Y16886D01*
X38026Y16362D01*
X37087Y15898D01*
X36119Y15497D01*
X35127Y15161D01*
X34115Y14890D01*
X33088Y14685D01*
X32049Y14549D01*
X31004Y14480D01*
X29956Y14480D01*
X28911Y14549D01*
X27872Y14685D01*
X26845Y14890D01*
X25833Y15161D01*
X24841Y15497D01*
X23873Y15898D01*
X22934Y16362D01*
X22026Y16886D01*
X21155Y17468D01*
X20324Y18105D01*
X19537Y18796D01*
X18796Y19537D01*
X18105Y20324D01*
X17468Y21155D01*
X16886Y22026D01*
X16362Y22934D01*
X15898Y23873D01*
X15497Y24841D01*
X15161Y25833D01*
X14890Y26845D01*
X14685Y27872D01*
X14549Y28911D01*
X14480Y29956D01*
X14480Y31004D01*
X14549Y32049D01*
X14685Y33088D01*
X14890Y34115D01*
X15161Y35127D01*
X15497Y36119D01*
X15898Y37087D01*
X16362Y38026D01*
X16886Y38934D01*
X17468Y39805D01*
X18105Y40636D01*
X18796Y41423D01*
X19537Y42164D01*
X20324Y42855D01*
X21155Y43493D01*
X22026Y44075D01*
X22934Y44598D01*
X23873Y45062D01*
X24841Y45463D01*
X25833Y45799D01*
X26845Y46070D01*
X27872Y46275D01*
X28911Y46412D01*
X29956Y46480D01*
X31004Y46480D01*
X32049Y46412D01*
X33088Y46275D01*
X34115Y46070D01*
X35127Y45799D01*
X36119Y45463D01*
X37087Y45062D01*
X38026Y44598D01*
X38934Y44075D01*
X39805Y43493D01*
X40636Y42855D01*
X41423Y42164D01*
X42164Y41423D01*
X42855Y40636D01*
X43493Y39805D01*
X44075Y38934D01*
X44598Y38026D01*
X45062Y37087D01*
X45463Y36119D01*
X45799Y35127D01*
X46070Y34115D01*
X46275Y33088D01*
X46412Y32049D01*
X46480Y31004D01*
X46480Y29956D01*
M02*
