M48
;GenerationSoftware,Autodesk,EAGLE,9.6.2*%
;CreationDate,2021-11-14T12:25:11Z*%
FMAT,2
ICI,OFF
METRIC,TZ,000.000
T5C0.350
T4C0.800
T3C0.900
T2C1.000
T1C3.200
%
G90
M71
T1
X29905Y37016
X3048Y3048
T2
X18650Y12700
X13570Y12700
T3
X20320Y2540
X20320Y5080
X20320Y7620
X25400Y6350
X9525Y3810
X9525Y6350
X25400Y3810
T4
X24960Y11110
X30040Y28890
X24960Y28890
X30040Y26350
X24960Y26350
X30040Y23810
X24960Y23810
X30040Y21270
X24960Y21270
X30040Y18730
X24960Y18730
X30040Y16190
X24960Y16190
X30040Y13650
X24960Y13650
X30040Y11110
T5
X21000Y22500
X12715Y32963
X6000Y33500
X14500Y8500
X10000Y23500
X16500Y10500
M30